<mxfile host="app.diagrams.net" agent="Mozilla/5.0 (Macintosh; Intel Mac OS X 10_15_7) AppleWebKit/537.36 (KHTML, like Gecko) Chrome/132.0.0.0 Safari/537.36" version="26.0.10">
  <diagram name="Страница — 1" id="6F7STSAauIs7shj7HiQ8">
    <mxGraphModel dx="2259" dy="1137" grid="1" gridSize="10" guides="1" tooltips="1" connect="1" arrows="1" fold="1" page="1" pageScale="1" pageWidth="2920" pageHeight="4700" math="0" shadow="0">
      <root>
        <mxCell id="0" />
        <mxCell id="1" parent="0" />
        <mxCell id="rZ_Y1SBktrl_OipgseRT-8" value="user" style="shape=umlActor;verticalLabelPosition=bottom;verticalAlign=top;html=1;outlineConnect=0;" parent="1" vertex="1">
          <mxGeometry x="352" y="530" width="30" height="60" as="geometry" />
        </mxCell>
        <mxCell id="rZ_Y1SBktrl_OipgseRT-9" value="ГОЛОВНА СТОРІНКА&lt;div&gt;МАГАЗИНУ&lt;/div&gt;" style="ellipse;whiteSpace=wrap;html=1;" parent="1" vertex="1">
          <mxGeometry x="612" y="525" width="140" height="70" as="geometry" />
        </mxCell>
        <mxCell id="rZ_Y1SBktrl_OipgseRT-11" value="ВИБІР КАТЕГОРІЇ" style="ellipse;whiteSpace=wrap;html=1;fillColor=#bac8d3;strokeColor=#23445d;" parent="1" vertex="1">
          <mxGeometry x="1012" y="525" width="140" height="70" as="geometry" />
        </mxCell>
        <mxCell id="rZ_Y1SBktrl_OipgseRT-12" value="СОРТУВАТИ /&lt;div&gt;ФІЛЬТР&lt;/div&gt;&lt;div&gt;ЗА ПАРАМ&lt;/div&gt;" style="ellipse;whiteSpace=wrap;html=1;fillColor=#bac8d3;strokeColor=#23445d;" parent="1" vertex="1">
          <mxGeometry x="1755" y="530" width="140" height="70" as="geometry" />
        </mxCell>
        <mxCell id="rZ_Y1SBktrl_OipgseRT-13" value="НОВИЗНА" style="ellipse;whiteSpace=wrap;html=1;fillColor=#f5f5f5;fontColor=#333333;strokeColor=#666666;" parent="1" vertex="1">
          <mxGeometry x="2045" y="665" width="140" height="70" as="geometry" />
        </mxCell>
        <mxCell id="rZ_Y1SBktrl_OipgseRT-14" value="ПОПУЛЯРНІСТЬ" style="ellipse;whiteSpace=wrap;html=1;fillColor=#f5f5f5;fontColor=#333333;strokeColor=#666666;" parent="1" vertex="1">
          <mxGeometry x="2045" y="530" width="140" height="70" as="geometry" />
        </mxCell>
        <mxCell id="rZ_Y1SBktrl_OipgseRT-15" value="ЦІНА" style="ellipse;whiteSpace=wrap;html=1;fillColor=#f5f5f5;fontColor=#333333;strokeColor=#666666;" parent="1" vertex="1">
          <mxGeometry x="2045" y="385" width="140" height="70" as="geometry" />
        </mxCell>
        <mxCell id="rZ_Y1SBktrl_OipgseRT-17" value="" style="endArrow=classic;html=1;rounded=0;entryX=0;entryY=0.5;entryDx=0;entryDy=0;" parent="1" target="rZ_Y1SBktrl_OipgseRT-9" edge="1">
          <mxGeometry width="50" height="50" relative="1" as="geometry">
            <mxPoint x="367" y="560" as="sourcePoint" />
            <mxPoint x="1122" y="440" as="targetPoint" />
          </mxGeometry>
        </mxCell>
        <mxCell id="rZ_Y1SBktrl_OipgseRT-19" value="" style="endArrow=block;endSize=16;endFill=0;html=1;rounded=0;entryX=1;entryY=0.5;entryDx=0;entryDy=0;exitX=0;exitY=0.5;exitDx=0;exitDy=0;" parent="1" source="rZ_Y1SBktrl_OipgseRT-14" target="rZ_Y1SBktrl_OipgseRT-12" edge="1">
          <mxGeometry width="160" relative="1" as="geometry">
            <mxPoint x="1595" y="465" as="sourcePoint" />
            <mxPoint x="1755" y="465" as="targetPoint" />
          </mxGeometry>
        </mxCell>
        <mxCell id="rZ_Y1SBktrl_OipgseRT-20" value="" style="endArrow=block;endSize=16;endFill=0;html=1;rounded=0;exitX=0;exitY=0;exitDx=0;exitDy=0;entryX=1;entryY=1;entryDx=0;entryDy=0;" parent="1" source="rZ_Y1SBktrl_OipgseRT-13" target="rZ_Y1SBktrl_OipgseRT-12" edge="1">
          <mxGeometry width="160" relative="1" as="geometry">
            <mxPoint x="1645" y="405" as="sourcePoint" />
            <mxPoint x="1805" y="405" as="targetPoint" />
          </mxGeometry>
        </mxCell>
        <mxCell id="rZ_Y1SBktrl_OipgseRT-21" value="" style="endArrow=block;endSize=16;endFill=0;html=1;rounded=0;entryX=1;entryY=0;entryDx=0;entryDy=0;exitX=0;exitY=1;exitDx=0;exitDy=0;" parent="1" source="rZ_Y1SBktrl_OipgseRT-15" target="rZ_Y1SBktrl_OipgseRT-12" edge="1">
          <mxGeometry width="160" relative="1" as="geometry">
            <mxPoint x="1645" y="525" as="sourcePoint" />
            <mxPoint x="1805" y="525" as="targetPoint" />
            <mxPoint as="offset" />
          </mxGeometry>
        </mxCell>
        <mxCell id="LNyuL3NQRcCMjMhrEUPy-1" value="АКЦІЇ / НОВИНКИ" style="ellipse;whiteSpace=wrap;html=1;fillColor=#ffe6cc;strokeColor=#d79b00;" parent="1" vertex="1">
          <mxGeometry x="664.5" y="840" width="140" height="70" as="geometry" />
        </mxCell>
        <mxCell id="LNyuL3NQRcCMjMhrEUPy-3" value="ПРО НАС" style="ellipse;whiteSpace=wrap;html=1;fillColor=#eeeeee;strokeColor=#36393d;" parent="1" vertex="1">
          <mxGeometry x="434" y="790" width="140" height="70" as="geometry" />
        </mxCell>
        <mxCell id="LNyuL3NQRcCMjMhrEUPy-5" value="FAQ" style="ellipse;whiteSpace=wrap;html=1;fillColor=#dae8fc;strokeColor=#6c8ebf;" parent="1" vertex="1">
          <mxGeometry x="1004.5" y="910" width="140" height="70" as="geometry" />
        </mxCell>
        <mxCell id="LNyuL3NQRcCMjMhrEUPy-6" value="ПРО ТОВАР" style="ellipse;whiteSpace=wrap;html=1;fillColor=#bac8d3;strokeColor=#23445d;" parent="1" vertex="1">
          <mxGeometry x="1605" y="380" width="140" height="70" as="geometry" />
        </mxCell>
        <mxCell id="LNyuL3NQRcCMjMhrEUPy-7" value="ВИБІР ТОВАРУ" style="ellipse;whiteSpace=wrap;html=1;fillColor=#bac8d3;strokeColor=#23445d;" parent="1" vertex="1">
          <mxGeometry x="1375.5" y="525" width="140" height="70" as="geometry" />
        </mxCell>
        <mxCell id="LNyuL3NQRcCMjMhrEUPy-10" value="ЗАПОВНИТИ ЗАПИТ / ФОМРУ" style="ellipse;whiteSpace=wrap;html=1;fillColor=#dae8fc;strokeColor=#6c8ebf;" parent="1" vertex="1">
          <mxGeometry x="1302" y="710" width="140" height="70" as="geometry" />
        </mxCell>
        <mxCell id="LNyuL3NQRcCMjMhrEUPy-11" value="Нік, пошта, запитання" style="shape=note;whiteSpace=wrap;html=1;backgroundOutline=1;darkOpacity=0.05;fillColor=#dae8fc;strokeColor=#6c8ebf;" parent="1" vertex="1">
          <mxGeometry x="1077" y="665" width="90" height="110" as="geometry" />
        </mxCell>
        <mxCell id="LNyuL3NQRcCMjMhrEUPy-13" value="ПЕРЕГЛЯД КОШИКУ" style="ellipse;whiteSpace=wrap;html=1;fillColor=#cdeb8b;strokeColor=#36393d;" parent="1" vertex="1">
          <mxGeometry x="1012" y="350" width="140" height="70" as="geometry" />
        </mxCell>
        <mxCell id="LNyuL3NQRcCMjMhrEUPy-17" value="" style="endArrow=none;html=1;rounded=0;entryX=0;entryY=0;entryDx=90;entryDy=70;entryPerimeter=0;exitX=0;exitY=0.5;exitDx=0;exitDy=0;" parent="1" source="LNyuL3NQRcCMjMhrEUPy-10" target="LNyuL3NQRcCMjMhrEUPy-11" edge="1">
          <mxGeometry width="50" height="50" relative="1" as="geometry">
            <mxPoint x="1355" y="730" as="sourcePoint" />
            <mxPoint x="1405" y="680" as="targetPoint" />
          </mxGeometry>
        </mxCell>
        <mxCell id="LNyuL3NQRcCMjMhrEUPy-23" value="&amp;lt;&amp;lt;extend&amp;gt;&amp;gt;" style="endArrow=open;endSize=12;dashed=1;html=1;rounded=0;entryX=1;entryY=1;entryDx=0;entryDy=0;exitX=0;exitY=0.5;exitDx=0;exitDy=0;" parent="1" source="LNyuL3NQRcCMjMhrEUPy-5" target="rZ_Y1SBktrl_OipgseRT-9" edge="1">
          <mxGeometry width="160" relative="1" as="geometry">
            <mxPoint x="805" y="720" as="sourcePoint" />
            <mxPoint x="965" y="720" as="targetPoint" />
          </mxGeometry>
        </mxCell>
        <mxCell id="LNyuL3NQRcCMjMhrEUPy-24" value="&amp;lt;&amp;lt;extend&amp;gt;&amp;gt;" style="endArrow=open;endSize=12;dashed=1;html=1;rounded=0;entryX=0.5;entryY=1;entryDx=0;entryDy=0;exitX=0.5;exitY=0;exitDx=0;exitDy=0;" parent="1" source="LNyuL3NQRcCMjMhrEUPy-1" target="rZ_Y1SBktrl_OipgseRT-9" edge="1">
          <mxGeometry width="160" relative="1" as="geometry">
            <mxPoint x="742" y="780" as="sourcePoint" />
            <mxPoint x="692" y="605" as="targetPoint" />
          </mxGeometry>
        </mxCell>
        <mxCell id="LNyuL3NQRcCMjMhrEUPy-25" value="&amp;lt;&amp;lt;extend&amp;gt;&amp;gt;" style="endArrow=open;endSize=12;dashed=1;html=1;rounded=0;entryX=0.5;entryY=0;entryDx=0;entryDy=0;exitX=0;exitY=1;exitDx=0;exitDy=0;" parent="1" source="LNyuL3NQRcCMjMhrEUPy-10" target="LNyuL3NQRcCMjMhrEUPy-5" edge="1">
          <mxGeometry x="0.0034" width="160" relative="1" as="geometry">
            <mxPoint x="1145" y="780" as="sourcePoint" />
            <mxPoint x="1095" y="605" as="targetPoint" />
            <mxPoint as="offset" />
          </mxGeometry>
        </mxCell>
        <mxCell id="LNyuL3NQRcCMjMhrEUPy-26" value="&amp;lt;&amp;lt;extend&amp;gt;&amp;gt;" style="endArrow=open;endSize=12;dashed=1;html=1;rounded=0;exitX=1;exitY=0;exitDx=0;exitDy=0;entryX=0;entryY=1;entryDx=0;entryDy=0;" parent="1" source="LNyuL3NQRcCMjMhrEUPy-3" target="rZ_Y1SBktrl_OipgseRT-9" edge="1">
          <mxGeometry width="160" relative="1" as="geometry">
            <mxPoint x="762" y="800" as="sourcePoint" />
            <mxPoint x="633" y="535" as="targetPoint" />
          </mxGeometry>
        </mxCell>
        <mxCell id="LNyuL3NQRcCMjMhrEUPy-28" value="&amp;lt;&amp;lt;extend&amp;gt;&amp;gt;" style="endArrow=open;endSize=12;dashed=1;html=1;rounded=0;entryX=0.5;entryY=0;entryDx=0;entryDy=0;exitX=0.5;exitY=1;exitDx=0;exitDy=0;" parent="1" source="LNyuL3NQRcCMjMhrEUPy-13" target="rZ_Y1SBktrl_OipgseRT-11" edge="1">
          <mxGeometry width="160" relative="1" as="geometry">
            <mxPoint x="675" y="820" as="sourcePoint" />
            <mxPoint x="625" y="645" as="targetPoint" />
          </mxGeometry>
        </mxCell>
        <mxCell id="LNyuL3NQRcCMjMhrEUPy-29" value="&amp;lt;&amp;lt;extend&amp;gt;&amp;gt;" style="endArrow=open;endSize=12;dashed=1;html=1;rounded=0;entryX=0.5;entryY=0;entryDx=0;entryDy=0;exitX=0;exitY=1;exitDx=0;exitDy=0;" parent="1" source="LNyuL3NQRcCMjMhrEUPy-6" target="LNyuL3NQRcCMjMhrEUPy-7" edge="1">
          <mxGeometry width="160" relative="1" as="geometry">
            <mxPoint x="685" y="830" as="sourcePoint" />
            <mxPoint x="635" y="655" as="targetPoint" />
          </mxGeometry>
        </mxCell>
        <mxCell id="LNyuL3NQRcCMjMhrEUPy-30" value="НАДІСЛАТИ" style="ellipse;whiteSpace=wrap;html=1;fillColor=#6d8764;strokeColor=#3A5431;fontColor=#ffffff;" parent="1" vertex="1">
          <mxGeometry x="1670" y="710" width="140" height="70" as="geometry" />
        </mxCell>
        <mxCell id="LNyuL3NQRcCMjMhrEUPy-31" value="&amp;lt;&amp;lt;include&amp;gt;&amp;gt;" style="endArrow=open;endSize=12;dashed=1;html=1;rounded=0;entryX=0;entryY=0.5;entryDx=0;entryDy=0;exitX=1;exitY=0.5;exitDx=0;exitDy=0;" parent="1" source="LNyuL3NQRcCMjMhrEUPy-10" target="LNyuL3NQRcCMjMhrEUPy-30" edge="1">
          <mxGeometry x="-0.0035" width="160" relative="1" as="geometry">
            <mxPoint x="1125" y="935" as="sourcePoint" />
            <mxPoint x="1045" y="825" as="targetPoint" />
            <mxPoint as="offset" />
          </mxGeometry>
        </mxCell>
        <mxCell id="LNyuL3NQRcCMjMhrEUPy-33" value="СКАСУВАТИ" style="ellipse;whiteSpace=wrap;html=1;fillColor=#a0522d;strokeColor=#6D1F00;fontColor=#ffffff;" parent="1" vertex="1">
          <mxGeometry x="1670" y="910" width="140" height="70" as="geometry" />
        </mxCell>
        <mxCell id="LNyuL3NQRcCMjMhrEUPy-34" value="&amp;lt;&amp;lt;extend&amp;gt;&amp;gt;" style="endArrow=open;endSize=12;dashed=1;html=1;rounded=0;exitX=0.5;exitY=0;exitDx=0;exitDy=0;entryX=0.5;entryY=1;entryDx=0;entryDy=0;" parent="1" source="LNyuL3NQRcCMjMhrEUPy-33" target="LNyuL3NQRcCMjMhrEUPy-30" edge="1">
          <mxGeometry x="0.0044" width="160" relative="1" as="geometry">
            <mxPoint x="1415" y="1030" as="sourcePoint" />
            <mxPoint x="1615" y="980" as="targetPoint" />
            <mxPoint as="offset" />
          </mxGeometry>
        </mxCell>
        <mxCell id="LNyuL3NQRcCMjMhrEUPy-35" value="ДОДАТИ В КОШИК" style="ellipse;whiteSpace=wrap;html=1;fillColor=#cdeb8b;strokeColor=#36393d;" parent="1" vertex="1">
          <mxGeometry x="1835" y="270" width="140" height="70" as="geometry" />
        </mxCell>
        <mxCell id="LNyuL3NQRcCMjMhrEUPy-36" value="&amp;lt;&amp;lt;extend&amp;gt;&amp;gt;" style="endArrow=open;endSize=12;dashed=1;html=1;rounded=0;entryX=0.5;entryY=0;entryDx=0;entryDy=0;exitX=0;exitY=0.5;exitDx=0;exitDy=0;" parent="1" source="LNyuL3NQRcCMjMhrEUPy-35" target="LNyuL3NQRcCMjMhrEUPy-6" edge="1">
          <mxGeometry width="160" relative="1" as="geometry">
            <mxPoint x="1085" y="420" as="sourcePoint" />
            <mxPoint x="1085" y="535" as="targetPoint" />
          </mxGeometry>
        </mxCell>
        <mxCell id="LNyuL3NQRcCMjMhrEUPy-37" value="&amp;lt;&amp;lt;extend&amp;gt;&amp;gt;" style="endArrow=open;endSize=12;dashed=1;html=1;rounded=0;entryX=0;entryY=0;entryDx=0;entryDy=0;exitX=1;exitY=0.5;exitDx=0;exitDy=0;" parent="1" source="LNyuL3NQRcCMjMhrEUPy-13" target="LNyuL3NQRcCMjMhrEUPy-6" edge="1">
          <mxGeometry width="160" relative="1" as="geometry">
            <mxPoint x="1085" y="420" as="sourcePoint" />
            <mxPoint x="1085" y="535" as="targetPoint" />
          </mxGeometry>
        </mxCell>
        <mxCell id="LNyuL3NQRcCMjMhrEUPy-38" value="ЗРОБИТИ ЗАМОВЛЕННЯ" style="ellipse;whiteSpace=wrap;html=1;fillColor=#d0cee2;strokeColor=#56517e;" parent="1" vertex="1">
          <mxGeometry x="839.5" y="60" width="140" height="70" as="geometry" />
        </mxCell>
        <mxCell id="LNyuL3NQRcCMjMhrEUPy-39" value="&amp;lt;&amp;lt;extend&amp;gt;&amp;gt;" style="endArrow=open;endSize=12;dashed=1;html=1;rounded=0;entryX=0.5;entryY=0;entryDx=0;entryDy=0;exitX=0.5;exitY=1;exitDx=0;exitDy=0;" parent="1" source="LNyuL3NQRcCMjMhrEUPy-38" target="LNyuL3NQRcCMjMhrEUPy-13" edge="1">
          <mxGeometry x="-0.0058" width="160" relative="1" as="geometry">
            <mxPoint x="945" y="265" as="sourcePoint" />
            <mxPoint x="1015" y="385" as="targetPoint" />
            <mxPoint as="offset" />
          </mxGeometry>
        </mxCell>
        <mxCell id="LNyuL3NQRcCMjMhrEUPy-41" value="ЗАПОВНИТИ ФОРМУ ЗАМОВЛЕННЯ" style="ellipse;whiteSpace=wrap;html=1;fillColor=#d0cee2;strokeColor=#56517e;" parent="1" vertex="1">
          <mxGeometry x="1144.5" y="20" width="140" height="70" as="geometry" />
        </mxCell>
        <mxCell id="LNyuL3NQRcCMjMhrEUPy-42" value="ПІДТВЕРДИТИ" style="ellipse;whiteSpace=wrap;html=1;fillColor=#6d8764;fontColor=#ffffff;strokeColor=#3A5431;" parent="1" vertex="1">
          <mxGeometry x="1499.5" y="60" width="140" height="70" as="geometry" />
        </mxCell>
        <mxCell id="LNyuL3NQRcCMjMhrEUPy-43" value="СКАСУВАТИ" style="ellipse;whiteSpace=wrap;html=1;fillColor=#a0522d;fontColor=#ffffff;strokeColor=#6D1F00;" parent="1" vertex="1">
          <mxGeometry x="1479.5" y="240" width="140" height="70" as="geometry" />
        </mxCell>
        <mxCell id="LNyuL3NQRcCMjMhrEUPy-44" value="ПОРІВНЯННЯ" style="ellipse;whiteSpace=wrap;html=1;fillColor=#cdeb8b;strokeColor=#36393d;" parent="1" vertex="1">
          <mxGeometry x="659" y="190" width="140" height="70" as="geometry" />
        </mxCell>
        <mxCell id="LNyuL3NQRcCMjMhrEUPy-45" value="&amp;lt;&amp;lt;include&amp;gt;&amp;gt;" style="endArrow=open;endSize=12;dashed=1;html=1;rounded=0;exitX=1;exitY=0.5;exitDx=0;exitDy=0;entryX=0;entryY=0.5;entryDx=0;entryDy=0;" parent="1" source="LNyuL3NQRcCMjMhrEUPy-38" target="LNyuL3NQRcCMjMhrEUPy-41" edge="1">
          <mxGeometry x="0.0017" width="160" relative="1" as="geometry">
            <mxPoint x="1065" y="10" as="sourcePoint" />
            <mxPoint x="1045" y="130" as="targetPoint" />
            <mxPoint as="offset" />
          </mxGeometry>
        </mxCell>
        <mxCell id="LNyuL3NQRcCMjMhrEUPy-46" value="&amp;lt;&amp;lt;include&amp;gt;&amp;gt;" style="endArrow=open;endSize=12;dashed=1;html=1;rounded=0;entryX=0;entryY=0.5;entryDx=0;entryDy=0;exitX=1;exitY=0.5;exitDx=0;exitDy=0;" parent="1" source="LNyuL3NQRcCMjMhrEUPy-41" target="LNyuL3NQRcCMjMhrEUPy-42" edge="1">
          <mxGeometry x="-0.0058" width="160" relative="1" as="geometry">
            <mxPoint x="1135" y="-120" as="sourcePoint" />
            <mxPoint x="955" y="-15" as="targetPoint" />
            <mxPoint as="offset" />
          </mxGeometry>
        </mxCell>
        <mxCell id="LNyuL3NQRcCMjMhrEUPy-47" value="&amp;lt;&amp;lt;extend&amp;gt;&amp;gt;" style="endArrow=open;endSize=12;dashed=1;html=1;rounded=0;exitX=1;exitY=0.5;exitDx=0;exitDy=0;entryX=1;entryY=1;entryDx=0;entryDy=0;" parent="1" source="LNyuL3NQRcCMjMhrEUPy-43" target="LNyuL3NQRcCMjMhrEUPy-42" edge="1">
          <mxGeometry x="0.0017" width="160" relative="1" as="geometry">
            <mxPoint x="1285" y="120" as="sourcePoint" />
            <mxPoint x="1335" y="170" as="targetPoint" />
            <mxPoint as="offset" />
          </mxGeometry>
        </mxCell>
        <mxCell id="LNyuL3NQRcCMjMhrEUPy-48" value="&amp;lt;&amp;lt;extend&amp;gt;&amp;gt;" style="endArrow=open;endSize=12;dashed=1;html=1;rounded=0;exitX=1;exitY=1;exitDx=0;exitDy=0;entryX=0;entryY=0;entryDx=0;entryDy=0;" parent="1" source="LNyuL3NQRcCMjMhrEUPy-44" target="LNyuL3NQRcCMjMhrEUPy-13" edge="1">
          <mxGeometry x="-0.0035" width="160" relative="1" as="geometry">
            <mxPoint x="885" y="130" as="sourcePoint" />
            <mxPoint x="755" y="220" as="targetPoint" />
            <mxPoint as="offset" />
          </mxGeometry>
        </mxCell>
        <mxCell id="LNyuL3NQRcCMjMhrEUPy-50" value="&amp;lt;&amp;lt;extend&amp;gt;&amp;gt;" style="endArrow=open;endSize=12;dashed=1;html=1;rounded=0;entryX=1;entryY=0.5;entryDx=0;entryDy=0;exitX=0;exitY=0.5;exitDx=0;exitDy=0;" parent="1" source="LNyuL3NQRcCMjMhrEUPy-7" target="rZ_Y1SBktrl_OipgseRT-11" edge="1">
          <mxGeometry width="160" relative="1" as="geometry">
            <mxPoint x="1045.5" y="580" as="sourcePoint" />
            <mxPoint x="944.5" y="665" as="targetPoint" />
          </mxGeometry>
        </mxCell>
        <mxCell id="LNyuL3NQRcCMjMhrEUPy-51" value="&amp;lt;&amp;lt;extend&amp;gt;&amp;gt;" style="endArrow=open;endSize=12;dashed=1;html=1;rounded=0;entryX=1;entryY=0.5;entryDx=0;entryDy=0;exitX=0;exitY=0.5;exitDx=0;exitDy=0;" parent="1" source="rZ_Y1SBktrl_OipgseRT-12" target="LNyuL3NQRcCMjMhrEUPy-7" edge="1">
          <mxGeometry width="160" relative="1" as="geometry">
            <mxPoint x="1196" y="460" as="sourcePoint" />
            <mxPoint x="1095" y="545" as="targetPoint" />
          </mxGeometry>
        </mxCell>
        <mxCell id="LNyuL3NQRcCMjMhrEUPy-52" value="&amp;lt;&amp;lt;extend&amp;gt;&amp;gt;" style="endArrow=open;endSize=12;dashed=1;html=1;rounded=0;entryX=1;entryY=0.5;entryDx=0;entryDy=0;exitX=0;exitY=0.5;exitDx=0;exitDy=0;" parent="1" source="rZ_Y1SBktrl_OipgseRT-11" target="rZ_Y1SBktrl_OipgseRT-9" edge="1">
          <mxGeometry width="160" relative="1" as="geometry">
            <mxPoint x="725" y="620" as="sourcePoint" />
            <mxPoint x="624" y="705" as="targetPoint" />
          </mxGeometry>
        </mxCell>
        <mxCell id="LNyuL3NQRcCMjMhrEUPy-106" value="&amp;lt;&amp;lt;include&amp;gt;&amp;gt;" style="endArrow=open;endSize=12;dashed=1;html=1;rounded=0;entryX=1;entryY=0;entryDx=0;entryDy=0;exitX=0;exitY=1;exitDx=0;exitDy=0;" parent="1" source="LNyuL3NQRcCMjMhrEUPy-43" target="LNyuL3NQRcCMjMhrEUPy-13" edge="1">
          <mxGeometry x="-0.0058" width="160" relative="1" as="geometry">
            <mxPoint x="1065" y="170" as="sourcePoint" />
            <mxPoint x="975" y="275" as="targetPoint" />
            <mxPoint as="offset" />
          </mxGeometry>
        </mxCell>
        <mxCell id="LNyuL3NQRcCMjMhrEUPy-107" value="&amp;lt;&amp;lt;include&amp;gt;&amp;gt;" style="endArrow=open;endSize=12;dashed=1;html=1;rounded=0;entryX=1;entryY=0.5;entryDx=0;entryDy=0;exitX=0;exitY=0.5;exitDx=0;exitDy=0;" parent="1" source="LNyuL3NQRcCMjMhrEUPy-33" target="LNyuL3NQRcCMjMhrEUPy-5" edge="1">
          <mxGeometry x="-0.0058" width="160" relative="1" as="geometry">
            <mxPoint x="1605" y="1070" as="sourcePoint" />
            <mxPoint x="1515" y="1175" as="targetPoint" />
            <mxPoint as="offset" />
          </mxGeometry>
        </mxCell>
        <mxCell id="LNyuL3NQRcCMjMhrEUPy-108" value="кошик" style="html=1;whiteSpace=wrap;" parent="1" vertex="1">
          <mxGeometry x="995.5" y="4280" width="154" height="70" as="geometry" />
        </mxCell>
        <mxCell id="LNyuL3NQRcCMjMhrEUPy-109" value="товар" style="html=1;whiteSpace=wrap;" parent="1" vertex="1">
          <mxGeometry x="675.5" y="4449" width="154" height="70" as="geometry" />
        </mxCell>
        <mxCell id="LNyuL3NQRcCMjMhrEUPy-163" value="користувач / працівник&lt;br&gt;(адміністратор / консультант)" style="html=1;whiteSpace=wrap;" parent="1" vertex="1">
          <mxGeometry x="1510.5" y="4280" width="154" height="70" as="geometry" />
        </mxCell>
        <mxCell id="LNyuL3NQRcCMjMhrEUPy-164" value="доставка" style="html=1;whiteSpace=wrap;" parent="1" vertex="1">
          <mxGeometry x="1836" y="4469" width="154" height="70" as="geometry" />
        </mxCell>
        <mxCell id="LNyuL3NQRcCMjMhrEUPy-165" value="замовлення" style="rhombus;whiteSpace=wrap;html=1;" parent="1" vertex="1">
          <mxGeometry x="1270" y="4447" width="120" height="120" as="geometry" />
        </mxCell>
        <mxCell id="LNyuL3NQRcCMjMhrEUPy-166" value="" style="endArrow=none;html=1;rounded=0;entryX=1;entryY=0.5;entryDx=0;entryDy=0;exitX=0;exitY=0;exitDx=0;exitDy=0;" parent="1" source="LNyuL3NQRcCMjMhrEUPy-165" target="LNyuL3NQRcCMjMhrEUPy-108" edge="1">
          <mxGeometry width="50" height="50" relative="1" as="geometry">
            <mxPoint x="1300.5000000000002" y="4284" as="sourcePoint" />
            <mxPoint x="1340.5" y="4264" as="targetPoint" />
          </mxGeometry>
        </mxCell>
        <mxCell id="LNyuL3NQRcCMjMhrEUPy-167" value="" style="endArrow=none;html=1;rounded=0;entryX=1;entryY=0.5;entryDx=0;entryDy=0;exitX=0;exitY=1;exitDx=0;exitDy=0;" parent="1" source="LNyuL3NQRcCMjMhrEUPy-165" target="LNyuL3NQRcCMjMhrEUPy-109" edge="1">
          <mxGeometry width="50" height="50" relative="1" as="geometry">
            <mxPoint x="1230.5" y="4444" as="sourcePoint" />
            <mxPoint x="1102.5" y="4404" as="targetPoint" />
          </mxGeometry>
        </mxCell>
        <mxCell id="LNyuL3NQRcCMjMhrEUPy-168" value="" style="endArrow=none;html=1;rounded=0;entryX=1;entryY=0;entryDx=0;entryDy=0;exitX=0;exitY=0.5;exitDx=0;exitDy=0;" parent="1" source="LNyuL3NQRcCMjMhrEUPy-163" target="LNyuL3NQRcCMjMhrEUPy-165" edge="1">
          <mxGeometry width="50" height="50" relative="1" as="geometry">
            <mxPoint x="1420.5" y="4234" as="sourcePoint" />
            <mxPoint x="1360.5000000000002" y="4284" as="targetPoint" />
          </mxGeometry>
        </mxCell>
        <mxCell id="LNyuL3NQRcCMjMhrEUPy-169" value="" style="endArrow=none;html=1;rounded=0;entryX=1;entryY=1;entryDx=0;entryDy=0;exitX=0;exitY=0.5;exitDx=0;exitDy=0;" parent="1" source="LNyuL3NQRcCMjMhrEUPy-164" target="LNyuL3NQRcCMjMhrEUPy-165" edge="1">
          <mxGeometry width="50" height="50" relative="1" as="geometry">
            <mxPoint x="1430.5" y="4354" as="sourcePoint" />
            <mxPoint x="1302.5" y="4424" as="targetPoint" />
          </mxGeometry>
        </mxCell>
        <mxCell id="LNyuL3NQRcCMjMhrEUPy-170" value="" style="shape=partialRectangle;whiteSpace=wrap;html=1;bottom=0;right=0;fillColor=none;" parent="1" vertex="1">
          <mxGeometry x="995.5" y="4350" width="154" height="20" as="geometry" />
        </mxCell>
        <mxCell id="LNyuL3NQRcCMjMhrEUPy-172" value="" style="shape=partialRectangle;whiteSpace=wrap;html=1;bottom=0;right=0;fillColor=none;" parent="1" vertex="1">
          <mxGeometry x="995.5" y="4370" width="34" height="20" as="geometry" />
        </mxCell>
        <mxCell id="LNyuL3NQRcCMjMhrEUPy-173" value="" style="shape=partialRectangle;whiteSpace=wrap;html=1;bottom=0;right=0;fillColor=none;" parent="1" vertex="1">
          <mxGeometry x="995.5" y="4390" width="34" height="20" as="geometry" />
        </mxCell>
        <mxCell id="LNyuL3NQRcCMjMhrEUPy-175" value="" style="shape=partialRectangle;whiteSpace=wrap;html=1;bottom=0;right=0;fillColor=none;" parent="1" vertex="1">
          <mxGeometry x="675.5" y="4519" width="154" height="20" as="geometry" />
        </mxCell>
        <mxCell id="LNyuL3NQRcCMjMhrEUPy-176" value="" style="shape=partialRectangle;whiteSpace=wrap;html=1;bottom=0;right=0;fillColor=none;" parent="1" vertex="1">
          <mxGeometry x="675.5" y="4539" width="34" height="20" as="geometry" />
        </mxCell>
        <mxCell id="LNyuL3NQRcCMjMhrEUPy-177" value="" style="shape=partialRectangle;whiteSpace=wrap;html=1;bottom=0;right=0;fillColor=none;" parent="1" vertex="1">
          <mxGeometry x="675.5" y="4559" width="34" height="20" as="geometry" />
        </mxCell>
        <mxCell id="LNyuL3NQRcCMjMhrEUPy-178" value="" style="shape=partialRectangle;whiteSpace=wrap;html=1;bottom=0;right=0;fillColor=none;" parent="1" vertex="1">
          <mxGeometry x="675.5" y="4579" width="34" height="20" as="geometry" />
        </mxCell>
        <mxCell id="LNyuL3NQRcCMjMhrEUPy-179" value="" style="shape=partialRectangle;whiteSpace=wrap;html=1;bottom=0;right=0;fillColor=none;" parent="1" vertex="1">
          <mxGeometry x="1836" y="4539" width="154" height="20" as="geometry" />
        </mxCell>
        <mxCell id="LNyuL3NQRcCMjMhrEUPy-180" value="" style="shape=partialRectangle;whiteSpace=wrap;html=1;bottom=0;right=0;fillColor=none;" parent="1" vertex="1">
          <mxGeometry x="1836" y="4559" width="34" height="20" as="geometry" />
        </mxCell>
        <mxCell id="LNyuL3NQRcCMjMhrEUPy-181" value="" style="shape=partialRectangle;whiteSpace=wrap;html=1;bottom=0;right=0;fillColor=none;" parent="1" vertex="1">
          <mxGeometry x="1836" y="4579" width="34" height="20" as="geometry" />
        </mxCell>
        <mxCell id="LNyuL3NQRcCMjMhrEUPy-182" value="" style="shape=partialRectangle;whiteSpace=wrap;html=1;bottom=0;right=0;fillColor=none;" parent="1" vertex="1">
          <mxGeometry x="1836" y="4599" width="34" height="20" as="geometry" />
        </mxCell>
        <mxCell id="LNyuL3NQRcCMjMhrEUPy-183" value="" style="shape=partialRectangle;whiteSpace=wrap;html=1;bottom=0;right=0;fillColor=none;" parent="1" vertex="1">
          <mxGeometry x="1510.5" y="4350" width="154" height="20" as="geometry" />
        </mxCell>
        <mxCell id="LNyuL3NQRcCMjMhrEUPy-184" value="" style="shape=partialRectangle;whiteSpace=wrap;html=1;bottom=0;right=0;fillColor=none;" parent="1" vertex="1">
          <mxGeometry x="1510.5" y="4370" width="34" height="20" as="geometry" />
        </mxCell>
        <mxCell id="LNyuL3NQRcCMjMhrEUPy-185" value="" style="shape=partialRectangle;whiteSpace=wrap;html=1;bottom=0;right=0;fillColor=none;" parent="1" vertex="1">
          <mxGeometry x="1510.5" y="4390" width="34" height="20" as="geometry" />
        </mxCell>
        <mxCell id="LNyuL3NQRcCMjMhrEUPy-187" value="&lt;u&gt;id&lt;/u&gt;" style="text;html=1;align=center;verticalAlign=middle;resizable=0;points=[];autosize=1;strokeColor=none;fillColor=none;" parent="1" vertex="1">
          <mxGeometry x="1029.5" y="4355" width="30" height="30" as="geometry" />
        </mxCell>
        <mxCell id="LNyuL3NQRcCMjMhrEUPy-188" value="сума" style="text;html=1;align=center;verticalAlign=middle;resizable=0;points=[];autosize=1;strokeColor=none;fillColor=none;" parent="1" vertex="1">
          <mxGeometry x="1023.5" y="4376" width="50" height="30" as="geometry" />
        </mxCell>
        <mxCell id="LNyuL3NQRcCMjMhrEUPy-190" value="&lt;u&gt;id&lt;/u&gt;" style="text;html=1;align=center;verticalAlign=middle;resizable=0;points=[];autosize=1;strokeColor=none;fillColor=none;" parent="1" vertex="1">
          <mxGeometry x="707.5" y="4523" width="30" height="30" as="geometry" />
        </mxCell>
        <mxCell id="LNyuL3NQRcCMjMhrEUPy-191" value="категорія" style="text;html=1;align=center;verticalAlign=middle;resizable=0;points=[];autosize=1;strokeColor=none;fillColor=none;" parent="1" vertex="1">
          <mxGeometry x="703.5" y="4543" width="80" height="30" as="geometry" />
        </mxCell>
        <mxCell id="LNyuL3NQRcCMjMhrEUPy-192" value="назва" style="text;html=1;align=center;verticalAlign=middle;resizable=0;points=[];autosize=1;strokeColor=none;fillColor=none;" parent="1" vertex="1">
          <mxGeometry x="702.5" y="4563" width="60" height="30" as="geometry" />
        </mxCell>
        <mxCell id="LNyuL3NQRcCMjMhrEUPy-193" value="&lt;u&gt;id&lt;/u&gt;" style="text;html=1;align=center;verticalAlign=middle;resizable=0;points=[];autosize=1;strokeColor=none;fillColor=none;" parent="1" vertex="1">
          <mxGeometry x="1545.5" y="4353" width="30" height="30" as="geometry" />
        </mxCell>
        <mxCell id="LNyuL3NQRcCMjMhrEUPy-194" value="роль" style="text;html=1;align=center;verticalAlign=middle;resizable=0;points=[];autosize=1;strokeColor=none;fillColor=none;" parent="1" vertex="1">
          <mxGeometry x="1541.5" y="4373" width="50" height="30" as="geometry" />
        </mxCell>
        <mxCell id="LNyuL3NQRcCMjMhrEUPy-196" value="&lt;u&gt;id&lt;/u&gt;" style="text;html=1;align=center;verticalAlign=middle;resizable=0;points=[];autosize=1;strokeColor=none;fillColor=none;" parent="1" vertex="1">
          <mxGeometry x="1870" y="4543" width="30" height="30" as="geometry" />
        </mxCell>
        <mxCell id="LNyuL3NQRcCMjMhrEUPy-197" value="спосіб" style="text;html=1;align=center;verticalAlign=middle;resizable=0;points=[];autosize=1;strokeColor=none;fillColor=none;" parent="1" vertex="1">
          <mxGeometry x="1867" y="4563" width="60" height="30" as="geometry" />
        </mxCell>
        <mxCell id="LNyuL3NQRcCMjMhrEUPy-198" value="прибуття" style="text;html=1;align=center;verticalAlign=middle;resizable=0;points=[];autosize=1;strokeColor=none;fillColor=none;" parent="1" vertex="1">
          <mxGeometry x="1864" y="4583" width="80" height="30" as="geometry" />
        </mxCell>
        <mxCell id="LNyuL3NQRcCMjMhrEUPy-199" value="адреса" style="text;html=1;align=center;verticalAlign=middle;resizable=0;points=[];autosize=1;strokeColor=none;fillColor=none;" parent="1" vertex="1">
          <mxGeometry x="1867" y="4604" width="60" height="30" as="geometry" />
        </mxCell>
        <mxCell id="LNyuL3NQRcCMjMhrEUPy-200" value="акція" style="text;html=1;align=center;verticalAlign=middle;resizable=0;points=[];autosize=1;strokeColor=none;fillColor=none;" parent="1" vertex="1">
          <mxGeometry x="704.5" y="4583" width="50" height="30" as="geometry" />
        </mxCell>
        <mxCell id="LNyuL3NQRcCMjMhrEUPy-201" value="ціна" style="text;html=1;align=center;verticalAlign=middle;resizable=0;points=[];autosize=1;strokeColor=none;fillColor=none;" parent="1" vertex="1">
          <mxGeometry x="703.5" y="4603" width="50" height="30" as="geometry" />
        </mxCell>
        <mxCell id="LNyuL3NQRcCMjMhrEUPy-202" value="кількість" style="text;html=1;align=center;verticalAlign=middle;resizable=0;points=[];autosize=1;strokeColor=none;fillColor=none;" parent="1" vertex="1">
          <mxGeometry x="702.5" y="4623" width="70" height="30" as="geometry" />
        </mxCell>
        <mxCell id="LNyuL3NQRcCMjMhrEUPy-203" value="ПІБ" style="text;html=1;align=center;verticalAlign=middle;resizable=0;points=[];autosize=1;strokeColor=none;fillColor=none;" parent="1" vertex="1">
          <mxGeometry x="1545.5" y="4396" width="40" height="30" as="geometry" />
        </mxCell>
        <mxCell id="LNyuL3NQRcCMjMhrEUPy-204" value="пошта" style="text;html=1;align=center;verticalAlign=middle;resizable=0;points=[];autosize=1;strokeColor=none;fillColor=none;" parent="1" vertex="1">
          <mxGeometry x="1540.5" y="4415" width="60" height="30" as="geometry" />
        </mxCell>
        <mxCell id="LNyuL3NQRcCMjMhrEUPy-205" value="" style="shape=partialRectangle;whiteSpace=wrap;html=1;bottom=0;right=0;fillColor=none;" parent="1" vertex="1">
          <mxGeometry x="675.5" y="4599" width="34" height="20" as="geometry" />
        </mxCell>
        <mxCell id="LNyuL3NQRcCMjMhrEUPy-206" value="" style="shape=partialRectangle;whiteSpace=wrap;html=1;bottom=0;right=0;fillColor=none;" parent="1" vertex="1">
          <mxGeometry x="675.5" y="4620" width="34" height="20" as="geometry" />
        </mxCell>
        <mxCell id="LNyuL3NQRcCMjMhrEUPy-207" value="" style="shape=partialRectangle;whiteSpace=wrap;html=1;bottom=0;right=0;fillColor=none;" parent="1" vertex="1">
          <mxGeometry x="675.5" y="4639" width="34" height="1" as="geometry" />
        </mxCell>
        <mxCell id="LNyuL3NQRcCMjMhrEUPy-209" value="" style="shape=partialRectangle;whiteSpace=wrap;html=1;bottom=0;right=0;fillColor=none;" parent="1" vertex="1">
          <mxGeometry x="1510.5" y="4411" width="34" height="20" as="geometry" />
        </mxCell>
        <mxCell id="LNyuL3NQRcCMjMhrEUPy-210" value="" style="shape=partialRectangle;whiteSpace=wrap;html=1;bottom=0;right=0;fillColor=none;" parent="1" vertex="1">
          <mxGeometry x="1510.5" y="4431" width="34" height="20" as="geometry" />
        </mxCell>
        <mxCell id="LNyuL3NQRcCMjMhrEUPy-211" value="" style="shape=partialRectangle;whiteSpace=wrap;html=1;bottom=0;right=0;fillColor=none;" parent="1" vertex="1">
          <mxGeometry x="1510.5" y="4450" width="34" height="1" as="geometry" />
        </mxCell>
        <mxCell id="LNyuL3NQRcCMjMhrEUPy-212" value="" style="shape=partialRectangle;whiteSpace=wrap;html=1;bottom=0;right=0;fillColor=none;" parent="1" vertex="1">
          <mxGeometry x="1836" y="4619" width="34" height="1" as="geometry" />
        </mxCell>
        <mxCell id="LNyuL3NQRcCMjMhrEUPy-215" value="" style="shape=partialRectangle;whiteSpace=wrap;html=1;bottom=0;right=0;fillColor=none;" parent="1" vertex="1">
          <mxGeometry x="1296" y="4567" width="34" height="20" as="geometry" />
        </mxCell>
        <mxCell id="LNyuL3NQRcCMjMhrEUPy-216" value="" style="shape=partialRectangle;whiteSpace=wrap;html=1;bottom=0;right=0;fillColor=none;" parent="1" vertex="1">
          <mxGeometry x="1296" y="4587" width="34" height="20" as="geometry" />
        </mxCell>
        <mxCell id="LNyuL3NQRcCMjMhrEUPy-217" value="" style="shape=partialRectangle;whiteSpace=wrap;html=1;bottom=0;right=0;fillColor=none;" parent="1" vertex="1">
          <mxGeometry x="1296" y="4607" width="34" height="20" as="geometry" />
        </mxCell>
        <mxCell id="LNyuL3NQRcCMjMhrEUPy-218" value="&lt;u&gt;id&lt;/u&gt;" style="text;html=1;align=center;verticalAlign=middle;resizable=0;points=[];autosize=1;strokeColor=none;fillColor=none;" parent="1" vertex="1">
          <mxGeometry x="1323" y="4572" width="30" height="30" as="geometry" />
        </mxCell>
        <mxCell id="LNyuL3NQRcCMjMhrEUPy-220" value="" style="shape=partialRectangle;whiteSpace=wrap;html=1;bottom=0;right=0;fillColor=none;" parent="1" vertex="1">
          <mxGeometry x="995.5" y="4410" width="34" height="1" as="geometry" />
        </mxCell>
        <mxCell id="LNyuL3NQRcCMjMhrEUPy-222" value="кількість" style="text;html=1;align=center;verticalAlign=middle;resizable=0;points=[];autosize=1;strokeColor=none;fillColor=none;" parent="1" vertex="1">
          <mxGeometry x="1024.5" y="4396" width="70" height="30" as="geometry" />
        </mxCell>
        <mxCell id="LNyuL3NQRcCMjMhrEUPy-223" value="чек" style="text;html=1;align=center;verticalAlign=middle;resizable=0;points=[];autosize=1;strokeColor=none;fillColor=none;" parent="1" vertex="1">
          <mxGeometry x="1323" y="4592" width="40" height="30" as="geometry" />
        </mxCell>
        <mxCell id="LNyuL3NQRcCMjMhrEUPy-224" value="" style="shape=partialRectangle;whiteSpace=wrap;html=1;bottom=0;right=0;fillColor=none;" parent="1" vertex="1">
          <mxGeometry x="1296" y="4627" width="34" height="20" as="geometry" />
        </mxCell>
        <mxCell id="LNyuL3NQRcCMjMhrEUPy-227" value="оплата" style="text;html=1;align=center;verticalAlign=middle;resizable=0;points=[];autosize=1;strokeColor=none;fillColor=none;" parent="1" vertex="1">
          <mxGeometry x="1323" y="4611" width="60" height="30" as="geometry" />
        </mxCell>
        <mxCell id="LNyuL3NQRcCMjMhrEUPy-229" value="знижка" style="text;html=1;align=center;verticalAlign=middle;resizable=0;points=[];autosize=1;strokeColor=none;fillColor=none;" parent="1" vertex="1">
          <mxGeometry x="1321" y="4631" width="70" height="30" as="geometry" />
        </mxCell>
        <mxCell id="LNyuL3NQRcCMjMhrEUPy-230" value="дата народження" style="text;html=1;align=center;verticalAlign=middle;resizable=0;points=[];autosize=1;strokeColor=none;fillColor=none;" parent="1" vertex="1">
          <mxGeometry x="1540.5" y="4434" width="120" height="30" as="geometry" />
        </mxCell>
        <mxCell id="LNyuL3NQRcCMjMhrEUPy-232" value="" style="shape=partialRectangle;whiteSpace=wrap;html=1;bottom=0;right=0;fillColor=none;" parent="1" vertex="1">
          <mxGeometry x="1296" y="4647" width="34" height="1" as="geometry" />
        </mxCell>
        <mxCell id="LNyuL3NQRcCMjMhrEUPy-233" value="&lt;div style=&quot;text-align: left;&quot;&gt;&lt;span style=&quot;background-color: transparent; text-wrap-mode: wrap;&quot;&gt;&lt;font style=&quot;font-size: 17px; color: light-dark(rgb(73, 73, 73), rgb(255, 255, 255));&quot; face=&quot;Arial, sans-serif&quot;&gt;∞&lt;/font&gt;&lt;/span&gt;&lt;/div&gt;" style="text;html=1;align=center;verticalAlign=middle;resizable=0;points=[];autosize=1;strokeColor=none;fillColor=none;rotation=35;" parent="1" vertex="1">
          <mxGeometry x="1270" y="4437" width="40" height="30" as="geometry" />
        </mxCell>
        <mxCell id="LNyuL3NQRcCMjMhrEUPy-234" value="&lt;div style=&quot;text-align: left;&quot;&gt;&lt;span style=&quot;background-color: transparent; text-wrap-mode: wrap;&quot;&gt;&lt;font style=&quot;font-size: 17px; color: light-dark(rgb(73, 73, 73), rgb(255, 255, 255));&quot; face=&quot;Arial, sans-serif&quot;&gt;∞&lt;/font&gt;&lt;/span&gt;&lt;/div&gt;" style="text;html=1;align=center;verticalAlign=middle;resizable=0;points=[];autosize=1;strokeColor=none;fillColor=none;rotation=35;" parent="1" vertex="1">
          <mxGeometry x="1362.9966874310455" y="4526.998809391355" width="40" height="30" as="geometry" />
        </mxCell>
        <mxCell id="LNyuL3NQRcCMjMhrEUPy-235" value="&lt;div style=&quot;text-align: left;&quot;&gt;&lt;span style=&quot;background-color: transparent; text-wrap-mode: wrap;&quot;&gt;&lt;font style=&quot;font-size: 17px; color: light-dark(rgb(73, 73, 73), rgb(255, 255, 255));&quot; face=&quot;Arial, sans-serif&quot;&gt;∞&lt;/font&gt;&lt;/span&gt;&lt;/div&gt;" style="text;html=1;align=center;verticalAlign=middle;resizable=0;points=[];autosize=1;strokeColor=none;fillColor=none;rotation=-39;" parent="1" vertex="1">
          <mxGeometry x="1349.9966874310455" y="4442.498809391356" width="40" height="30" as="geometry" />
        </mxCell>
        <mxCell id="LNyuL3NQRcCMjMhrEUPy-236" value="&lt;div style=&quot;text-align: left;&quot;&gt;&lt;span style=&quot;background-color: transparent; text-wrap-mode: wrap;&quot;&gt;&lt;font style=&quot;font-size: 17px; color: light-dark(rgb(73, 73, 73), rgb(255, 255, 255));&quot; face=&quot;Arial, sans-serif&quot;&gt;∞&lt;/font&gt;&lt;/span&gt;&lt;/div&gt;" style="text;html=1;align=center;verticalAlign=middle;resizable=0;points=[];autosize=1;strokeColor=none;fillColor=none;rotation=-38;" parent="1" vertex="1">
          <mxGeometry x="829.4966874310455" y="4438.998809391355" width="40" height="30" as="geometry" />
        </mxCell>
        <mxCell id="LNyuL3NQRcCMjMhrEUPy-239" value="додає товар" style="rhombus;whiteSpace=wrap;html=1;" parent="1" vertex="1">
          <mxGeometry x="1277.5" y="4140" width="120" height="120" as="geometry" />
        </mxCell>
        <mxCell id="LNyuL3NQRcCMjMhrEUPy-240" value="" style="endArrow=none;html=1;rounded=0;entryX=1;entryY=1;entryDx=0;entryDy=0;exitX=0;exitY=0;exitDx=0;exitDy=0;" parent="1" source="LNyuL3NQRcCMjMhrEUPy-163" target="LNyuL3NQRcCMjMhrEUPy-239" edge="1">
          <mxGeometry width="50" height="50" relative="1" as="geometry">
            <mxPoint x="1430" y="4250" as="sourcePoint" />
            <mxPoint x="1280" y="4135" as="targetPoint" />
          </mxGeometry>
        </mxCell>
        <mxCell id="LNyuL3NQRcCMjMhrEUPy-241" value="" style="endArrow=none;html=1;rounded=0;entryX=1;entryY=0;entryDx=0;entryDy=0;exitX=0;exitY=1;exitDx=0;exitDy=0;" parent="1" source="LNyuL3NQRcCMjMhrEUPy-239" target="LNyuL3NQRcCMjMhrEUPy-108" edge="1">
          <mxGeometry width="50" height="50" relative="1" as="geometry">
            <mxPoint x="1230" y="4220" as="sourcePoint" />
            <mxPoint x="1087" y="4170" as="targetPoint" />
          </mxGeometry>
        </mxCell>
        <mxCell id="LNyuL3NQRcCMjMhrEUPy-242" value="1" style="text;html=1;align=center;verticalAlign=middle;resizable=0;points=[];autosize=1;strokeColor=none;fillColor=none;" parent="1" vertex="1">
          <mxGeometry x="1145" y="4248" width="30" height="30" as="geometry" />
        </mxCell>
        <mxCell id="LNyuL3NQRcCMjMhrEUPy-244" value="1" style="text;html=1;align=center;verticalAlign=middle;resizable=0;points=[];autosize=1;strokeColor=none;fillColor=none;" parent="1" vertex="1">
          <mxGeometry x="1500" y="4250" width="30" height="30" as="geometry" />
        </mxCell>
        <mxCell id="LNyuL3NQRcCMjMhrEUPy-245" value="&lt;div style=&quot;text-align: left;&quot;&gt;&lt;span style=&quot;background-color: transparent; text-wrap-mode: wrap;&quot;&gt;&lt;font style=&quot;font-size: 17px; color: light-dark(rgb(73, 73, 73), rgb(255, 255, 255));&quot; face=&quot;Arial, sans-serif&quot;&gt;∞&lt;/font&gt;&lt;/span&gt;&lt;/div&gt;" style="text;html=1;align=center;verticalAlign=middle;resizable=0;points=[];autosize=1;strokeColor=none;fillColor=none;rotation=20;" parent="1" vertex="1">
          <mxGeometry x="1382.502725094887" y="4210.003597242851" width="40" height="30" as="geometry" />
        </mxCell>
        <mxCell id="LNyuL3NQRcCMjMhrEUPy-246" value="&lt;div style=&quot;text-align: left;&quot;&gt;&lt;span style=&quot;background-color: transparent; text-wrap-mode: wrap;&quot;&gt;&lt;font style=&quot;font-size: 17px; color: light-dark(rgb(73, 73, 73), rgb(255, 255, 255));&quot; face=&quot;Arial, sans-serif&quot;&gt;∞&lt;/font&gt;&lt;/span&gt;&lt;/div&gt;" style="text;html=1;align=center;verticalAlign=middle;resizable=0;points=[];autosize=1;strokeColor=none;fillColor=none;rotation=-20;" parent="1" vertex="1">
          <mxGeometry x="1250.002725094887" y="4218.003597242851" width="40" height="30" as="geometry" />
        </mxCell>
        <mxCell id="LNyuL3NQRcCMjMhrEUPy-247" value="1" style="text;html=1;align=center;verticalAlign=middle;resizable=0;points=[];autosize=1;strokeColor=none;fillColor=none;" parent="1" vertex="1">
          <mxGeometry x="1480" y="4300" width="30" height="30" as="geometry" />
        </mxCell>
        <mxCell id="LNyuL3NQRcCMjMhrEUPy-248" value="&lt;div style=&quot;text-align: left;&quot;&gt;&lt;span style=&quot;background-color: transparent; text-wrap-mode: wrap;&quot;&gt;&lt;font style=&quot;font-size: 17px; color: light-dark(rgb(73, 73, 73), rgb(255, 255, 255));&quot; face=&quot;Arial, sans-serif&quot;&gt;∞&lt;/font&gt;&lt;/span&gt;&lt;/div&gt;" style="text;html=1;align=center;verticalAlign=middle;resizable=0;points=[];autosize=1;strokeColor=none;fillColor=none;rotation=-38;" parent="1" vertex="1">
          <mxGeometry x="1250.4951372020194" y="4527.003390810614" width="40" height="30" as="geometry" />
        </mxCell>
        <mxCell id="LNyuL3NQRcCMjMhrEUPy-249" value="&lt;div style=&quot;text-align: left;&quot;&gt;&lt;span style=&quot;background-color: transparent; text-wrap-mode: wrap;&quot;&gt;&lt;font style=&quot;font-size: 17px; color: light-dark(rgb(73, 73, 73), rgb(255, 255, 255));&quot; face=&quot;Arial, sans-serif&quot;&gt;∞&lt;/font&gt;&lt;/span&gt;&lt;/div&gt;" style="text;html=1;align=center;verticalAlign=middle;resizable=0;points=[];autosize=1;strokeColor=none;fillColor=none;rotation=40;" parent="1" vertex="1">
          <mxGeometry x="1800.4951372020194" y="4464.003390810614" width="40" height="30" as="geometry" />
        </mxCell>
        <mxCell id="LNyuL3NQRcCMjMhrEUPy-251" value="1" style="text;html=1;align=center;verticalAlign=middle;resizable=0;points=[];autosize=1;strokeColor=none;fillColor=none;" parent="1" vertex="1">
          <mxGeometry x="1159.5" y="4300" width="30" height="30" as="geometry" />
        </mxCell>
        <mxCell id="LM3xeamLBFiHQx5b4NGj-3" value="Вибір товару, доставки,&lt;div&gt;оплати, вписування номеру телефону та пошти&lt;/div&gt;" style="shape=note;whiteSpace=wrap;html=1;backgroundOutline=1;darkOpacity=0.05;fillColor=#d0cee2;strokeColor=#56517e;" parent="1" vertex="1">
          <mxGeometry x="1152.5" y="140" width="149.5" height="130" as="geometry" />
        </mxCell>
        <mxCell id="LM3xeamLBFiHQx5b4NGj-4" value="" style="endArrow=none;html=1;rounded=0;entryX=0.5;entryY=1;entryDx=0;entryDy=0;exitX=0.5;exitY=0;exitDx=0;exitDy=0;exitPerimeter=0;" parent="1" source="LM3xeamLBFiHQx5b4NGj-3" target="LNyuL3NQRcCMjMhrEUPy-41" edge="1">
          <mxGeometry width="50" height="50" relative="1" as="geometry">
            <mxPoint x="1075" y="40" as="sourcePoint" />
            <mxPoint x="1136" y="100" as="targetPoint" />
          </mxGeometry>
        </mxCell>
        <mxCell id="mbtWYfYxGWzuB-wMxGtt-1" value="admin" style="shape=umlActor;verticalLabelPosition=bottom;verticalAlign=top;html=1;outlineConnect=0;" parent="1" vertex="1">
          <mxGeometry x="724" y="3680" width="30" height="60" as="geometry" />
        </mxCell>
        <mxCell id="mbtWYfYxGWzuB-wMxGtt-2" value="ГОЛОВНА СТОРІНКА&lt;div&gt;МАГАЗИНУ&lt;/div&gt;" style="ellipse;whiteSpace=wrap;html=1;" parent="1" vertex="1">
          <mxGeometry x="935.75" y="3675" width="140" height="70" as="geometry" />
        </mxCell>
        <mxCell id="mbtWYfYxGWzuB-wMxGtt-3" value="ВИБІР КАТЕГОРІЇ" style="ellipse;whiteSpace=wrap;html=1;fillColor=#bac8d3;strokeColor=#23445d;" parent="1" vertex="1">
          <mxGeometry x="1464.5" y="3675" width="140" height="70" as="geometry" />
        </mxCell>
        <mxCell id="mbtWYfYxGWzuB-wMxGtt-4" value="СОРТУВАННЯ&lt;div&gt;ФІЛЬТР&lt;/div&gt;&lt;div&gt;ЗА ПАРАМ&lt;/div&gt;" style="ellipse;whiteSpace=wrap;html=1;fillColor=#bac8d3;strokeColor=#23445d;" parent="1" vertex="1">
          <mxGeometry x="2134.5" y="3675" width="140" height="70" as="geometry" />
        </mxCell>
        <mxCell id="mbtWYfYxGWzuB-wMxGtt-5" value="НОВИЗНА" style="ellipse;whiteSpace=wrap;html=1;fillColor=#f5f5f5;fontColor=#333333;strokeColor=#666666;" parent="1" vertex="1">
          <mxGeometry x="2414.5" y="3770" width="140" height="70" as="geometry" />
        </mxCell>
        <mxCell id="mbtWYfYxGWzuB-wMxGtt-6" value="ПОПУЛЯРНІСТЬ" style="ellipse;whiteSpace=wrap;html=1;fillColor=#f5f5f5;fontColor=#333333;strokeColor=#666666;" parent="1" vertex="1">
          <mxGeometry x="2424.5" y="3675" width="140" height="70" as="geometry" />
        </mxCell>
        <mxCell id="mbtWYfYxGWzuB-wMxGtt-7" value="ЦІНА" style="ellipse;whiteSpace=wrap;html=1;fillColor=#f5f5f5;fontColor=#333333;strokeColor=#666666;" parent="1" vertex="1">
          <mxGeometry x="2424.5" y="3580" width="140" height="70" as="geometry" />
        </mxCell>
        <mxCell id="mbtWYfYxGWzuB-wMxGtt-8" value="" style="endArrow=classic;html=1;rounded=0;entryX=0;entryY=0.5;entryDx=0;entryDy=0;exitX=0.5;exitY=0.5;exitDx=0;exitDy=0;exitPerimeter=0;" parent="1" source="mbtWYfYxGWzuB-wMxGtt-1" target="mbtWYfYxGWzuB-wMxGtt-2" edge="1">
          <mxGeometry width="50" height="50" relative="1" as="geometry">
            <mxPoint x="1443.25" y="3580" as="sourcePoint" />
            <mxPoint x="1493.25" y="3530" as="targetPoint" />
          </mxGeometry>
        </mxCell>
        <mxCell id="mbtWYfYxGWzuB-wMxGtt-9" value="" style="endArrow=block;endSize=16;endFill=0;html=1;rounded=0;entryX=1;entryY=0.5;entryDx=0;entryDy=0;exitX=0;exitY=0.5;exitDx=0;exitDy=0;" parent="1" source="mbtWYfYxGWzuB-wMxGtt-6" target="mbtWYfYxGWzuB-wMxGtt-4" edge="1">
          <mxGeometry width="160" relative="1" as="geometry">
            <mxPoint x="1974.5" y="3610" as="sourcePoint" />
            <mxPoint x="2134.5" y="3610" as="targetPoint" />
          </mxGeometry>
        </mxCell>
        <mxCell id="mbtWYfYxGWzuB-wMxGtt-10" value="" style="endArrow=block;endSize=16;endFill=0;html=1;rounded=0;exitX=0;exitY=0;exitDx=0;exitDy=0;entryX=1;entryY=1;entryDx=0;entryDy=0;" parent="1" source="mbtWYfYxGWzuB-wMxGtt-5" target="mbtWYfYxGWzuB-wMxGtt-4" edge="1">
          <mxGeometry width="160" relative="1" as="geometry">
            <mxPoint x="2024.5" y="3550" as="sourcePoint" />
            <mxPoint x="2184.5" y="3550" as="targetPoint" />
          </mxGeometry>
        </mxCell>
        <mxCell id="mbtWYfYxGWzuB-wMxGtt-11" value="" style="endArrow=block;endSize=16;endFill=0;html=1;rounded=0;entryX=1;entryY=0;entryDx=0;entryDy=0;exitX=0;exitY=1;exitDx=0;exitDy=0;" parent="1" source="mbtWYfYxGWzuB-wMxGtt-7" target="mbtWYfYxGWzuB-wMxGtt-4" edge="1">
          <mxGeometry width="160" relative="1" as="geometry">
            <mxPoint x="2024.5" y="3670" as="sourcePoint" />
            <mxPoint x="2184.5" y="3670" as="targetPoint" />
            <mxPoint as="offset" />
          </mxGeometry>
        </mxCell>
        <mxCell id="mbtWYfYxGWzuB-wMxGtt-12" value="АКЦІЇ / НОВИНКИ" style="ellipse;whiteSpace=wrap;html=1;fillColor=#ffe6cc;strokeColor=#d79b00;" parent="1" vertex="1">
          <mxGeometry x="454.5" y="3900" width="140" height="70" as="geometry" />
        </mxCell>
        <mxCell id="mbtWYfYxGWzuB-wMxGtt-13" value="ПРО НАС" style="ellipse;whiteSpace=wrap;html=1;fillColor=#eeeeee;strokeColor=#36393d;" parent="1" vertex="1">
          <mxGeometry x="424.5" y="3500" width="140" height="70" as="geometry" />
        </mxCell>
        <mxCell id="mbtWYfYxGWzuB-wMxGtt-14" value="FAQ" style="ellipse;whiteSpace=wrap;html=1;fillColor=#dae8fc;strokeColor=#6c8ebf;" parent="1" vertex="1">
          <mxGeometry x="1001.5" y="3950" width="140" height="70" as="geometry" />
        </mxCell>
        <mxCell id="mbtWYfYxGWzuB-wMxGtt-15" value="ПРО ТОВАР" style="ellipse;whiteSpace=wrap;html=1;fillColor=#bac8d3;strokeColor=#23445d;" parent="1" vertex="1">
          <mxGeometry x="1994.5" y="3290" width="140" height="70" as="geometry" />
        </mxCell>
        <mxCell id="mbtWYfYxGWzuB-wMxGtt-16" value="ВИБІР ТОВАРУ" style="ellipse;whiteSpace=wrap;html=1;fillColor=#bac8d3;strokeColor=#23445d;" parent="1" vertex="1">
          <mxGeometry x="1814.5" y="3675" width="140" height="70" as="geometry" />
        </mxCell>
        <mxCell id="mbtWYfYxGWzuB-wMxGtt-17" value="ПРОДИВИТИСЯ НАДІСЛАНІ ФОРМИ" style="ellipse;whiteSpace=wrap;html=1;fillColor=#dae8fc;strokeColor=#6c8ebf;" parent="1" vertex="1">
          <mxGeometry x="1254.5" y="3820" width="140" height="70" as="geometry" />
        </mxCell>
        <mxCell id="mbtWYfYxGWzuB-wMxGtt-18" value="Надати відповідь, закрити, відхилити" style="shape=note;whiteSpace=wrap;html=1;backgroundOutline=1;darkOpacity=0.05;fillColor=#dae8fc;strokeColor=#6c8ebf;" parent="1" vertex="1">
          <mxGeometry x="1554.5" y="3940" width="90" height="110" as="geometry" />
        </mxCell>
        <mxCell id="mbtWYfYxGWzuB-wMxGtt-19" value="ЗАМОВЛЕННЯ" style="ellipse;whiteSpace=wrap;html=1;fillColor=#b0e3e6;strokeColor=#0e8088;" parent="1" vertex="1">
          <mxGeometry x="934.5" y="3340" width="140" height="70" as="geometry" />
        </mxCell>
        <mxCell id="mbtWYfYxGWzuB-wMxGtt-20" value="КОШИК" style="ellipse;whiteSpace=wrap;html=1;fillColor=#cdeb8b;strokeColor=#36393d;" parent="1" vertex="1">
          <mxGeometry x="1329.5" y="3260" width="140" height="70" as="geometry" />
        </mxCell>
        <mxCell id="mbtWYfYxGWzuB-wMxGtt-21" value="" style="endArrow=none;html=1;rounded=0;entryX=0;entryY=0;entryDx=0;entryDy=0;entryPerimeter=0;exitX=1;exitY=1;exitDx=0;exitDy=0;" parent="1" source="mbtWYfYxGWzuB-wMxGtt-17" target="mbtWYfYxGWzuB-wMxGtt-18" edge="1">
          <mxGeometry width="50" height="50" relative="1" as="geometry">
            <mxPoint x="1432.75" y="3750" as="sourcePoint" />
            <mxPoint x="1482.75" y="3700" as="targetPoint" />
          </mxGeometry>
        </mxCell>
        <mxCell id="mbtWYfYxGWzuB-wMxGtt-22" value="&amp;lt;&amp;lt;extend&amp;gt;&amp;gt;" style="endArrow=open;endSize=12;dashed=1;html=1;rounded=0;entryX=0.5;entryY=1;entryDx=0;entryDy=0;exitX=0;exitY=0.5;exitDx=0;exitDy=0;" parent="1" source="mbtWYfYxGWzuB-wMxGtt-14" target="mbtWYfYxGWzuB-wMxGtt-2" edge="1">
          <mxGeometry width="160" relative="1" as="geometry">
            <mxPoint x="1235.75" y="3870" as="sourcePoint" />
            <mxPoint x="1395.75" y="3870" as="targetPoint" />
          </mxGeometry>
        </mxCell>
        <mxCell id="mbtWYfYxGWzuB-wMxGtt-23" value="&amp;lt;&amp;lt;extend&amp;gt;&amp;gt;" style="endArrow=open;endSize=12;dashed=1;html=1;rounded=0;entryX=0;entryY=1;entryDx=0;entryDy=0;exitX=0.5;exitY=0;exitDx=0;exitDy=0;" parent="1" source="mbtWYfYxGWzuB-wMxGtt-12" target="mbtWYfYxGWzuB-wMxGtt-2" edge="1">
          <mxGeometry width="160" relative="1" as="geometry">
            <mxPoint x="1065.75" y="3930" as="sourcePoint" />
            <mxPoint x="1015.75" y="3755" as="targetPoint" />
          </mxGeometry>
        </mxCell>
        <mxCell id="mbtWYfYxGWzuB-wMxGtt-24" value="&amp;lt;&amp;lt;extend&amp;gt;&amp;gt;" style="endArrow=open;endSize=12;dashed=1;html=1;rounded=0;entryX=1;entryY=0.5;entryDx=0;entryDy=0;exitX=0;exitY=0.5;exitDx=0;exitDy=0;" parent="1" source="mbtWYfYxGWzuB-wMxGtt-17" target="mbtWYfYxGWzuB-wMxGtt-14" edge="1">
          <mxGeometry x="0.0034" width="160" relative="1" as="geometry">
            <mxPoint x="1222.75" y="3800" as="sourcePoint" />
            <mxPoint x="1172.75" y="3625" as="targetPoint" />
            <mxPoint as="offset" />
          </mxGeometry>
        </mxCell>
        <mxCell id="mbtWYfYxGWzuB-wMxGtt-25" value="&amp;lt;&amp;lt;extend&amp;gt;&amp;gt;" style="endArrow=open;endSize=12;dashed=1;html=1;rounded=0;entryX=0;entryY=0;entryDx=0;entryDy=0;exitX=0.5;exitY=1;exitDx=0;exitDy=0;" parent="1" source="mbtWYfYxGWzuB-wMxGtt-13" target="mbtWYfYxGWzuB-wMxGtt-2" edge="1">
          <mxGeometry width="160" relative="1" as="geometry">
            <mxPoint x="1085.75" y="3950" as="sourcePoint" />
            <mxPoint x="1035.75" y="3775" as="targetPoint" />
          </mxGeometry>
        </mxCell>
        <mxCell id="mbtWYfYxGWzuB-wMxGtt-26" value="&amp;lt;&amp;lt;extend&amp;gt;&amp;gt;" style="endArrow=open;endSize=12;dashed=1;html=1;rounded=0;entryX=0.5;entryY=0;entryDx=0;entryDy=0;exitX=0.5;exitY=1;exitDx=0;exitDy=0;" parent="1" source="mbtWYfYxGWzuB-wMxGtt-19" target="mbtWYfYxGWzuB-wMxGtt-2" edge="1">
          <mxGeometry width="160" relative="1" as="geometry">
            <mxPoint x="1095.75" y="3960" as="sourcePoint" />
            <mxPoint x="1045.75" y="3785" as="targetPoint" />
          </mxGeometry>
        </mxCell>
        <mxCell id="mbtWYfYxGWzuB-wMxGtt-27" value="&amp;lt;&amp;lt;extend&amp;gt;&amp;gt;" style="endArrow=open;endSize=12;dashed=1;html=1;rounded=0;entryX=0.5;entryY=0;entryDx=0;entryDy=0;exitX=1;exitY=1;exitDx=0;exitDy=0;" parent="1" source="mbtWYfYxGWzuB-wMxGtt-20" target="mbtWYfYxGWzuB-wMxGtt-3" edge="1">
          <mxGeometry width="160" relative="1" as="geometry">
            <mxPoint x="1394.5" y="3410" as="sourcePoint" />
            <mxPoint x="1055.75" y="3795" as="targetPoint" />
          </mxGeometry>
        </mxCell>
        <mxCell id="mbtWYfYxGWzuB-wMxGtt-28" value="&amp;lt;&amp;lt;extend&amp;gt;&amp;gt;" style="endArrow=open;endSize=12;dashed=1;html=1;rounded=0;entryX=1;entryY=0;entryDx=0;entryDy=0;exitX=0.5;exitY=1;exitDx=0;exitDy=0;" parent="1" source="mbtWYfYxGWzuB-wMxGtt-15" target="mbtWYfYxGWzuB-wMxGtt-16" edge="1">
          <mxGeometry width="160" relative="1" as="geometry">
            <mxPoint x="1115.75" y="3980" as="sourcePoint" />
            <mxPoint x="1065.75" y="3805" as="targetPoint" />
          </mxGeometry>
        </mxCell>
        <mxCell id="mbtWYfYxGWzuB-wMxGtt-29" value="ПІДТВЕРДИТИ" style="ellipse;whiteSpace=wrap;html=1;fillColor=#6d8764;strokeColor=#3A5431;fontColor=#ffffff;" parent="1" vertex="1">
          <mxGeometry x="1844.5" y="3860" width="140" height="70" as="geometry" />
        </mxCell>
        <mxCell id="mbtWYfYxGWzuB-wMxGtt-30" value="&amp;lt;&amp;lt;include&amp;gt;&amp;gt;" style="endArrow=open;endSize=12;dashed=1;html=1;rounded=0;exitX=1;exitY=0.5;exitDx=0;exitDy=0;entryX=0;entryY=0.5;entryDx=0;entryDy=0;" parent="1" source="mbtWYfYxGWzuB-wMxGtt-17" target="mbtWYfYxGWzuB-wMxGtt-77" edge="1">
          <mxGeometry x="-0.006" width="160" relative="1" as="geometry">
            <mxPoint x="1202.75" y="3955" as="sourcePoint" />
            <mxPoint x="1511.5" y="3900" as="targetPoint" />
            <mxPoint as="offset" />
          </mxGeometry>
        </mxCell>
        <mxCell id="mbtWYfYxGWzuB-wMxGtt-31" value="СКАСУВАТИ" style="ellipse;whiteSpace=wrap;html=1;fillColor=#a0522d;strokeColor=#6D1F00;fontColor=#ffffff;" parent="1" vertex="1">
          <mxGeometry x="1754.5" y="4100" width="140" height="70" as="geometry" />
        </mxCell>
        <mxCell id="mbtWYfYxGWzuB-wMxGtt-32" value="&amp;lt;&amp;lt;extend&amp;gt;&amp;gt;" style="endArrow=open;endSize=12;dashed=1;html=1;rounded=0;exitX=0.5;exitY=0;exitDx=0;exitDy=0;entryX=0.5;entryY=1;entryDx=0;entryDy=0;" parent="1" source="mbtWYfYxGWzuB-wMxGtt-31" target="mbtWYfYxGWzuB-wMxGtt-29" edge="1">
          <mxGeometry x="0.0044" width="160" relative="1" as="geometry">
            <mxPoint x="1492.75" y="4050" as="sourcePoint" />
            <mxPoint x="1692.75" y="4000" as="targetPoint" />
            <mxPoint as="offset" />
          </mxGeometry>
        </mxCell>
        <mxCell id="mbtWYfYxGWzuB-wMxGtt-33" value="ДОДАТИ В КОШИК" style="ellipse;whiteSpace=wrap;html=1;fillColor=#cdeb8b;strokeColor=#36393d;" parent="1" vertex="1">
          <mxGeometry x="2314.5" y="3290" width="140" height="70" as="geometry" />
        </mxCell>
        <mxCell id="mbtWYfYxGWzuB-wMxGtt-34" value="&amp;lt;&amp;lt;extend&amp;gt;&amp;gt;" style="endArrow=open;endSize=12;dashed=1;html=1;rounded=0;entryX=1;entryY=0.5;entryDx=0;entryDy=0;exitX=0;exitY=0.5;exitDx=0;exitDy=0;" parent="1" source="mbtWYfYxGWzuB-wMxGtt-33" target="mbtWYfYxGWzuB-wMxGtt-15" edge="1">
          <mxGeometry x="-0.0005" width="160" relative="1" as="geometry">
            <mxPoint x="1515.75" y="3570" as="sourcePoint" />
            <mxPoint x="1515.75" y="3685" as="targetPoint" />
            <mxPoint as="offset" />
          </mxGeometry>
        </mxCell>
        <mxCell id="mbtWYfYxGWzuB-wMxGtt-35" value="&amp;lt;&amp;lt;extend&amp;gt;&amp;gt;" style="endArrow=open;endSize=12;dashed=1;html=1;rounded=0;entryX=0;entryY=0;entryDx=0;entryDy=0;exitX=1;exitY=0.5;exitDx=0;exitDy=0;" parent="1" source="mbtWYfYxGWzuB-wMxGtt-20" target="mbtWYfYxGWzuB-wMxGtt-15" edge="1">
          <mxGeometry width="160" relative="1" as="geometry">
            <mxPoint x="1515.75" y="3570" as="sourcePoint" />
            <mxPoint x="1515.75" y="3685" as="targetPoint" />
          </mxGeometry>
        </mxCell>
        <mxCell id="mbtWYfYxGWzuB-wMxGtt-36" value="ЗРОБИТИ ЗАМОВЛЕННЯ" style="ellipse;whiteSpace=wrap;html=1;fillColor=#d0cee2;strokeColor=#56517e;" parent="1" vertex="1">
          <mxGeometry x="1329.5" y="3010" width="140" height="70" as="geometry" />
        </mxCell>
        <mxCell id="mbtWYfYxGWzuB-wMxGtt-37" value="&amp;lt;&amp;lt;extend&amp;gt;&amp;gt;" style="endArrow=open;endSize=12;dashed=1;html=1;rounded=0;entryX=0.5;entryY=0;entryDx=0;entryDy=0;exitX=0.5;exitY=1;exitDx=0;exitDy=0;" parent="1" source="mbtWYfYxGWzuB-wMxGtt-36" target="mbtWYfYxGWzuB-wMxGtt-20" edge="1">
          <mxGeometry x="-0.0058" width="160" relative="1" as="geometry">
            <mxPoint x="1375.75" y="3415" as="sourcePoint" />
            <mxPoint x="1445.75" y="3535" as="targetPoint" />
            <mxPoint as="offset" />
          </mxGeometry>
        </mxCell>
        <mxCell id="mbtWYfYxGWzuB-wMxGtt-39" value="ЗАПОВНИТИ ФОРМУ ЗАМОВЛЕННЯ" style="ellipse;whiteSpace=wrap;html=1;fillColor=#d0cee2;strokeColor=#56517e;" parent="1" vertex="1">
          <mxGeometry x="1734.5" y="3010" width="140" height="70" as="geometry" />
        </mxCell>
        <mxCell id="mbtWYfYxGWzuB-wMxGtt-40" value="ПІДТВЕРДИТИ" style="ellipse;whiteSpace=wrap;html=1;fillColor=#6d8764;fontColor=#ffffff;strokeColor=#3A5431;" parent="1" vertex="1">
          <mxGeometry x="2094.5" y="3080" width="140" height="70" as="geometry" />
        </mxCell>
        <mxCell id="mbtWYfYxGWzuB-wMxGtt-41" value="СКАСУВАТИ" style="ellipse;whiteSpace=wrap;html=1;fillColor=#a0522d;fontColor=#ffffff;strokeColor=#6D1F00;" parent="1" vertex="1">
          <mxGeometry x="1734.5" y="3160" width="140" height="70" as="geometry" />
        </mxCell>
        <mxCell id="mbtWYfYxGWzuB-wMxGtt-42" value="ПОРІВНЯННЯ" style="ellipse;whiteSpace=wrap;html=1;fillColor=#cdeb8b;strokeColor=#36393d;" parent="1" vertex="1">
          <mxGeometry x="1109.5" y="3140" width="140" height="70" as="geometry" />
        </mxCell>
        <mxCell id="mbtWYfYxGWzuB-wMxGtt-43" value="&amp;lt;&amp;lt;include&amp;gt;&amp;gt;" style="endArrow=open;endSize=12;dashed=1;html=1;rounded=0;exitX=1;exitY=0.5;exitDx=0;exitDy=0;entryX=0;entryY=0.5;entryDx=0;entryDy=0;" parent="1" source="mbtWYfYxGWzuB-wMxGtt-36" target="mbtWYfYxGWzuB-wMxGtt-39" edge="1">
          <mxGeometry x="0.0017" width="160" relative="1" as="geometry">
            <mxPoint x="1495.75" y="3160" as="sourcePoint" />
            <mxPoint x="1475.75" y="3280" as="targetPoint" />
            <mxPoint as="offset" />
          </mxGeometry>
        </mxCell>
        <mxCell id="mbtWYfYxGWzuB-wMxGtt-44" value="&amp;lt;&amp;lt;include&amp;gt;&amp;gt;" style="endArrow=open;endSize=12;dashed=1;html=1;rounded=0;entryX=0;entryY=0;entryDx=0;entryDy=0;exitX=1;exitY=0.5;exitDx=0;exitDy=0;" parent="1" source="mbtWYfYxGWzuB-wMxGtt-39" target="mbtWYfYxGWzuB-wMxGtt-40" edge="1">
          <mxGeometry x="-0.0058" width="160" relative="1" as="geometry">
            <mxPoint x="1565.75" y="3030" as="sourcePoint" />
            <mxPoint x="1385.75" y="3135" as="targetPoint" />
            <mxPoint as="offset" />
          </mxGeometry>
        </mxCell>
        <mxCell id="mbtWYfYxGWzuB-wMxGtt-45" value="&amp;lt;&amp;lt;extend&amp;gt;&amp;gt;" style="endArrow=open;endSize=12;dashed=1;html=1;rounded=0;exitX=1;exitY=0.5;exitDx=0;exitDy=0;entryX=0;entryY=1;entryDx=0;entryDy=0;" parent="1" source="mbtWYfYxGWzuB-wMxGtt-41" target="mbtWYfYxGWzuB-wMxGtt-40" edge="1">
          <mxGeometry x="-0.0012" width="160" relative="1" as="geometry">
            <mxPoint x="1715.75" y="3270" as="sourcePoint" />
            <mxPoint x="1765.75" y="3320" as="targetPoint" />
            <mxPoint as="offset" />
          </mxGeometry>
        </mxCell>
        <mxCell id="mbtWYfYxGWzuB-wMxGtt-46" value="&amp;lt;&amp;lt;extend&amp;gt;&amp;gt;" style="endArrow=open;endSize=12;dashed=1;html=1;rounded=0;entryX=0;entryY=0.5;entryDx=0;entryDy=0;exitX=1;exitY=1;exitDx=0;exitDy=0;" parent="1" source="mbtWYfYxGWzuB-wMxGtt-42" target="mbtWYfYxGWzuB-wMxGtt-20" edge="1">
          <mxGeometry x="-0.0035" width="160" relative="1" as="geometry">
            <mxPoint x="1195.5" y="3360" as="sourcePoint" />
            <mxPoint x="1185.75" y="3370" as="targetPoint" />
            <mxPoint as="offset" />
          </mxGeometry>
        </mxCell>
        <mxCell id="mbtWYfYxGWzuB-wMxGtt-47" value="&amp;lt;&amp;lt;extend&amp;gt;&amp;gt;" style="endArrow=open;endSize=12;dashed=1;html=1;rounded=0;entryX=1;entryY=0.5;entryDx=0;entryDy=0;exitX=0;exitY=0.5;exitDx=0;exitDy=0;" parent="1" source="mbtWYfYxGWzuB-wMxGtt-16" target="mbtWYfYxGWzuB-wMxGtt-3" edge="1">
          <mxGeometry width="160" relative="1" as="geometry">
            <mxPoint x="1965" y="3730" as="sourcePoint" />
            <mxPoint x="1864" y="3815" as="targetPoint" />
          </mxGeometry>
        </mxCell>
        <mxCell id="mbtWYfYxGWzuB-wMxGtt-48" value="&amp;lt;&amp;lt;extend&amp;gt;&amp;gt;" style="endArrow=open;endSize=12;dashed=1;html=1;rounded=0;entryX=1;entryY=0.5;entryDx=0;entryDy=0;exitX=0;exitY=0.5;exitDx=0;exitDy=0;" parent="1" source="mbtWYfYxGWzuB-wMxGtt-4" target="mbtWYfYxGWzuB-wMxGtt-16" edge="1">
          <mxGeometry width="160" relative="1" as="geometry">
            <mxPoint x="2115.5" y="3610" as="sourcePoint" />
            <mxPoint x="2014.5" y="3695" as="targetPoint" />
          </mxGeometry>
        </mxCell>
        <mxCell id="mbtWYfYxGWzuB-wMxGtt-49" value="&amp;lt;&amp;lt;extend&amp;gt;&amp;gt;" style="endArrow=open;endSize=12;dashed=1;html=1;rounded=0;entryX=1;entryY=0.5;entryDx=0;entryDy=0;exitX=0;exitY=0.5;exitDx=0;exitDy=0;" parent="1" source="mbtWYfYxGWzuB-wMxGtt-3" target="mbtWYfYxGWzuB-wMxGtt-2" edge="1">
          <mxGeometry width="160" relative="1" as="geometry">
            <mxPoint x="1155.75" y="3770" as="sourcePoint" />
            <mxPoint x="1054.75" y="3855" as="targetPoint" />
          </mxGeometry>
        </mxCell>
        <mxCell id="mbtWYfYxGWzuB-wMxGtt-50" value="&amp;lt;&amp;lt;include&amp;gt;&amp;gt;" style="endArrow=open;endSize=12;dashed=1;html=1;rounded=0;entryX=1;entryY=0;entryDx=0;entryDy=0;exitX=0;exitY=1;exitDx=0;exitDy=0;" parent="1" source="mbtWYfYxGWzuB-wMxGtt-41" target="mbtWYfYxGWzuB-wMxGtt-20" edge="1">
          <mxGeometry x="-0.0169" width="160" relative="1" as="geometry">
            <mxPoint x="1495.75" y="3320" as="sourcePoint" />
            <mxPoint x="1405.75" y="3425" as="targetPoint" />
            <mxPoint as="offset" />
          </mxGeometry>
        </mxCell>
        <mxCell id="mbtWYfYxGWzuB-wMxGtt-51" value="&amp;lt;&amp;lt;include&amp;gt;&amp;gt;" style="endArrow=open;endSize=12;dashed=1;html=1;rounded=0;entryX=1;entryY=1;entryDx=0;entryDy=0;exitX=0;exitY=0.5;exitDx=0;exitDy=0;" parent="1" source="mbtWYfYxGWzuB-wMxGtt-31" target="mbtWYfYxGWzuB-wMxGtt-14" edge="1">
          <mxGeometry x="-0.0058" width="160" relative="1" as="geometry">
            <mxPoint x="1682.75" y="4090" as="sourcePoint" />
            <mxPoint x="1592.75" y="4195" as="targetPoint" />
            <mxPoint as="offset" />
          </mxGeometry>
        </mxCell>
        <mxCell id="mbtWYfYxGWzuB-wMxGtt-52" value="Передивитися всі зроблені замовлення" style="shape=note;whiteSpace=wrap;html=1;backgroundOutline=1;darkOpacity=0.05;fillColor=#b0e3e6;strokeColor=#0e8088;" parent="1" vertex="1">
          <mxGeometry x="864" y="2990" width="90" height="110" as="geometry" />
        </mxCell>
        <mxCell id="mbtWYfYxGWzuB-wMxGtt-53" value="" style="endArrow=none;html=1;rounded=0;entryX=0;entryY=0;entryDx=0;entryDy=0;exitX=1;exitY=1;exitDx=0;exitDy=0;exitPerimeter=0;" parent="1" source="mbtWYfYxGWzuB-wMxGtt-52" target="mbtWYfYxGWzuB-wMxGtt-19" edge="1">
          <mxGeometry width="50" height="50" relative="1" as="geometry">
            <mxPoint x="1105.75" y="3280" as="sourcePoint" />
            <mxPoint x="1196.75" y="3280" as="targetPoint" />
          </mxGeometry>
        </mxCell>
        <mxCell id="mbtWYfYxGWzuB-wMxGtt-54" value="Вибір товару, доставки,&lt;div&gt;оплати&lt;/div&gt;" style="shape=note;whiteSpace=wrap;html=1;backgroundOutline=1;darkOpacity=0.05;fillColor=#d0cee2;strokeColor=#56517e;" parent="1" vertex="1">
          <mxGeometry x="1894.5" y="2850" width="90" height="110" as="geometry" />
        </mxCell>
        <mxCell id="mbtWYfYxGWzuB-wMxGtt-55" value="" style="endArrow=none;html=1;rounded=0;entryX=0.5;entryY=0;entryDx=0;entryDy=0;exitX=0;exitY=1;exitDx=0;exitDy=0;exitPerimeter=0;" parent="1" source="mbtWYfYxGWzuB-wMxGtt-54" target="mbtWYfYxGWzuB-wMxGtt-39" edge="1">
          <mxGeometry width="50" height="50" relative="1" as="geometry">
            <mxPoint x="1505.75" y="3190" as="sourcePoint" />
            <mxPoint x="1566.75" y="3250" as="targetPoint" />
          </mxGeometry>
        </mxCell>
        <mxCell id="mbtWYfYxGWzuB-wMxGtt-56" value="РЕДАГУВАТИ" style="ellipse;whiteSpace=wrap;html=1;fillColor=#eeeeee;strokeColor=#36393d;" parent="1" vertex="1">
          <mxGeometry x="424.5" y="3210" width="140" height="70" as="geometry" />
        </mxCell>
        <mxCell id="mbtWYfYxGWzuB-wMxGtt-57" value="&amp;lt;&amp;lt;extend&amp;gt;&amp;gt;" style="endArrow=open;endSize=12;dashed=1;html=1;rounded=0;exitX=0.5;exitY=1;exitDx=0;exitDy=0;entryX=0.5;entryY=0;entryDx=0;entryDy=0;" parent="1" source="mbtWYfYxGWzuB-wMxGtt-56" target="mbtWYfYxGWzuB-wMxGtt-13" edge="1">
          <mxGeometry x="-0.0014" width="160" relative="1" as="geometry">
            <mxPoint x="694.5" y="3390" as="sourcePoint" />
            <mxPoint x="862.5" y="3325" as="targetPoint" />
            <mxPoint as="offset" />
          </mxGeometry>
        </mxCell>
        <mxCell id="mbtWYfYxGWzuB-wMxGtt-59" value="ЗМІНИТИ СТАТУС ЗАМОВЛЕННЯ" style="ellipse;whiteSpace=wrap;html=1;fillColor=#b0e3e6;strokeColor=#0e8088;" parent="1" vertex="1">
          <mxGeometry x="652.5" y="3240" width="140" height="70" as="geometry" />
        </mxCell>
        <mxCell id="mbtWYfYxGWzuB-wMxGtt-60" value="&amp;lt;&amp;lt;extend&amp;gt;&amp;gt;" style="endArrow=open;endSize=12;dashed=1;html=1;rounded=0;exitX=1;exitY=0.5;exitDx=0;exitDy=0;entryX=0;entryY=0.5;entryDx=0;entryDy=0;" parent="1" source="mbtWYfYxGWzuB-wMxGtt-59" target="mbtWYfYxGWzuB-wMxGtt-19" edge="1">
          <mxGeometry x="-0.0014" width="160" relative="1" as="geometry">
            <mxPoint x="934.5" y="3180" as="sourcePoint" />
            <mxPoint x="907.5" y="3400" as="targetPoint" />
            <mxPoint as="offset" />
          </mxGeometry>
        </mxCell>
        <mxCell id="mbtWYfYxGWzuB-wMxGtt-63" value="Оброблено, підтверджено, відхилено" style="shape=note;whiteSpace=wrap;html=1;backgroundOutline=1;darkOpacity=0.05;fillColor=#b0e3e6;strokeColor=#0e8088;" parent="1" vertex="1">
          <mxGeometry x="678.5" y="2980" width="90" height="110" as="geometry" />
        </mxCell>
        <mxCell id="mbtWYfYxGWzuB-wMxGtt-64" value="" style="endArrow=none;html=1;rounded=0;entryX=0.5;entryY=0;entryDx=0;entryDy=0;exitX=0.5;exitY=1;exitDx=0;exitDy=0;exitPerimeter=0;" parent="1" source="mbtWYfYxGWzuB-wMxGtt-63" target="mbtWYfYxGWzuB-wMxGtt-59" edge="1">
          <mxGeometry width="50" height="50" relative="1" as="geometry">
            <mxPoint x="794.5" y="3030" as="sourcePoint" />
            <mxPoint x="798.5" y="3230" as="targetPoint" />
          </mxGeometry>
        </mxCell>
        <mxCell id="mbtWYfYxGWzuB-wMxGtt-65" value="РЕДАГУВАТИ" style="ellipse;whiteSpace=wrap;html=1;fillColor=#b0e3e6;strokeColor=#0e8088;" parent="1" vertex="1">
          <mxGeometry x="1744.5" y="3460" width="140" height="70" as="geometry" />
        </mxCell>
        <mxCell id="mbtWYfYxGWzuB-wMxGtt-66" value="&amp;lt;&amp;lt;extend&amp;gt;&amp;gt;" style="endArrow=open;endSize=12;dashed=1;html=1;rounded=0;entryX=0;entryY=0.5;entryDx=0;entryDy=0;exitX=0.5;exitY=0;exitDx=0;exitDy=0;" parent="1" source="mbtWYfYxGWzuB-wMxGtt-65" target="mbtWYfYxGWzuB-wMxGtt-15" edge="1">
          <mxGeometry width="160" relative="1" as="geometry">
            <mxPoint x="1754.5" y="3480" as="sourcePoint" />
            <mxPoint x="1593.5" y="3755" as="targetPoint" />
          </mxGeometry>
        </mxCell>
        <mxCell id="mbtWYfYxGWzuB-wMxGtt-67" value="&amp;lt;&amp;lt;extend&amp;gt;&amp;gt;" style="endArrow=open;endSize=12;dashed=1;html=1;rounded=0;entryX=0.5;entryY=0;entryDx=0;entryDy=0;exitX=0.5;exitY=1;exitDx=0;exitDy=0;" parent="1" source="mbtWYfYxGWzuB-wMxGtt-65" target="mbtWYfYxGWzuB-wMxGtt-16" edge="1">
          <mxGeometry x="0.0008" width="160" relative="1" as="geometry">
            <mxPoint x="1784.5" y="3500" as="sourcePoint" />
            <mxPoint x="1623.5" y="3775" as="targetPoint" />
            <mxPoint as="offset" />
          </mxGeometry>
        </mxCell>
        <mxCell id="mbtWYfYxGWzuB-wMxGtt-68" value="&amp;lt;&amp;lt;extend&amp;gt;&amp;gt;" style="endArrow=open;endSize=12;dashed=1;html=1;rounded=0;entryX=1;entryY=0;entryDx=0;entryDy=0;exitX=0;exitY=1;exitDx=0;exitDy=0;" parent="1" source="mbtWYfYxGWzuB-wMxGtt-65" target="mbtWYfYxGWzuB-wMxGtt-3" edge="1">
          <mxGeometry width="160" relative="1" as="geometry">
            <mxPoint x="1404.5" y="3620" as="sourcePoint" />
            <mxPoint x="1243.5" y="3895" as="targetPoint" />
          </mxGeometry>
        </mxCell>
        <mxCell id="mbtWYfYxGWzuB-wMxGtt-69" value="РЕДАГУВАТИ" style="ellipse;whiteSpace=wrap;html=1;fillColor=#cdeb8b;strokeColor=#36393d;" parent="1" vertex="1">
          <mxGeometry x="563" y="370" width="140" height="70" as="geometry" />
        </mxCell>
        <mxCell id="mbtWYfYxGWzuB-wMxGtt-70" value="&amp;lt;&amp;lt;extend&amp;gt;&amp;gt;" style="endArrow=open;endSize=12;dashed=1;html=1;rounded=0;exitX=0;exitY=0.5;exitDx=0;exitDy=0;entryX=1;entryY=0.5;entryDx=0;entryDy=0;" parent="1" source="LNyuL3NQRcCMjMhrEUPy-13" target="mbtWYfYxGWzuB-wMxGtt-69" edge="1">
          <mxGeometry x="0.0017" width="160" relative="1" as="geometry">
            <mxPoint x="1545" y="70" as="sourcePoint" />
            <mxPoint x="1095" y="510" as="targetPoint" />
            <mxPoint as="offset" />
          </mxGeometry>
        </mxCell>
        <mxCell id="mbtWYfYxGWzuB-wMxGtt-71" value="Додати. видалити. відмінити товар" style="shape=note;whiteSpace=wrap;html=1;backgroundOutline=1;darkOpacity=0.05;fillColor=#d5e8d4;strokeColor=#82b366;" parent="1" vertex="1">
          <mxGeometry x="434" y="210" width="101" height="120" as="geometry" />
        </mxCell>
        <mxCell id="mbtWYfYxGWzuB-wMxGtt-72" value="" style="endArrow=none;html=1;rounded=0;entryX=0;entryY=0;entryDx=0;entryDy=0;exitX=1;exitY=1;exitDx=0;exitDy=0;exitPerimeter=0;" parent="1" source="mbtWYfYxGWzuB-wMxGtt-71" target="mbtWYfYxGWzuB-wMxGtt-69" edge="1">
          <mxGeometry width="50" height="50" relative="1" as="geometry">
            <mxPoint x="1688" y="-10" as="sourcePoint" />
            <mxPoint x="1688" y="50" as="targetPoint" />
          </mxGeometry>
        </mxCell>
        <mxCell id="mbtWYfYxGWzuB-wMxGtt-73" value="РЕДАГУВАТИ" style="ellipse;whiteSpace=wrap;html=1;fillColor=#cdeb8b;strokeColor=#36393d;" parent="1" vertex="1">
          <mxGeometry x="1104.5" y="3410" width="140" height="70" as="geometry" />
        </mxCell>
        <mxCell id="mbtWYfYxGWzuB-wMxGtt-74" value="Додати. видалити. відмінити товар" style="shape=note;whiteSpace=wrap;html=1;backgroundOutline=1;darkOpacity=0.05;fillColor=#d5e8d4;strokeColor=#82b366;" parent="1" vertex="1">
          <mxGeometry x="1325" y="3560" width="90" height="110" as="geometry" />
        </mxCell>
        <mxCell id="mbtWYfYxGWzuB-wMxGtt-75" value="" style="endArrow=none;html=1;rounded=0;entryX=1;entryY=0.5;entryDx=0;entryDy=0;exitX=0;exitY=0.5;exitDx=0;exitDy=0;exitPerimeter=0;" parent="1" source="mbtWYfYxGWzuB-wMxGtt-74" target="mbtWYfYxGWzuB-wMxGtt-73" edge="1">
          <mxGeometry width="50" height="50" relative="1" as="geometry">
            <mxPoint x="2119.5" y="3100" as="sourcePoint" />
            <mxPoint x="2119.5" y="3160" as="targetPoint" />
          </mxGeometry>
        </mxCell>
        <mxCell id="mbtWYfYxGWzuB-wMxGtt-76" value="&amp;lt;&amp;lt;extend&amp;gt;&amp;gt;" style="endArrow=open;endSize=12;dashed=1;html=1;rounded=0;entryX=0;entryY=1;entryDx=0;entryDy=0;exitX=1;exitY=0;exitDx=0;exitDy=0;" parent="1" source="mbtWYfYxGWzuB-wMxGtt-73" target="mbtWYfYxGWzuB-wMxGtt-20" edge="1">
          <mxGeometry x="-0.0005" width="160" relative="1" as="geometry">
            <mxPoint x="2024.5" y="3300" as="sourcePoint" />
            <mxPoint x="1924.5" y="3300" as="targetPoint" />
            <mxPoint as="offset" />
          </mxGeometry>
        </mxCell>
        <mxCell id="mbtWYfYxGWzuB-wMxGtt-77" value="ЗМІНИТИ СТАТУС ФОРМИ" style="ellipse;whiteSpace=wrap;html=1;fillColor=#dae8fc;strokeColor=#6c8ebf;" parent="1" vertex="1">
          <mxGeometry x="1534.5" y="3820" width="140" height="70" as="geometry" />
        </mxCell>
        <mxCell id="mbtWYfYxGWzuB-wMxGtt-78" value="&amp;lt;&amp;lt;include&amp;gt;&amp;gt;" style="endArrow=open;endSize=12;dashed=1;html=1;rounded=0;exitX=1;exitY=0.5;exitDx=0;exitDy=0;entryX=0;entryY=0.5;entryDx=0;entryDy=0;" parent="1" source="mbtWYfYxGWzuB-wMxGtt-77" target="mbtWYfYxGWzuB-wMxGtt-29" edge="1">
          <mxGeometry x="-0.006" width="160" relative="1" as="geometry">
            <mxPoint x="1472.25" y="3955" as="sourcePoint" />
            <mxPoint x="1781" y="3900" as="targetPoint" />
            <mxPoint as="offset" />
          </mxGeometry>
        </mxCell>
        <mxCell id="mbtWYfYxGWzuB-wMxGtt-79" value="РЕДАГУВАТИ" style="ellipse;whiteSpace=wrap;html=1;fillColor=#b0e3e6;strokeColor=#0e8088;" parent="1" vertex="1">
          <mxGeometry x="704.5" y="4050" width="140" height="70" as="geometry" />
        </mxCell>
        <mxCell id="mbtWYfYxGWzuB-wMxGtt-80" value="&amp;lt;&amp;lt;extend&amp;gt;&amp;gt;" style="endArrow=open;endSize=12;dashed=1;html=1;rounded=0;entryX=1;entryY=1;entryDx=0;entryDy=0;exitX=0;exitY=0.5;exitDx=0;exitDy=0;" parent="1" source="mbtWYfYxGWzuB-wMxGtt-79" target="mbtWYfYxGWzuB-wMxGtt-12" edge="1">
          <mxGeometry width="160" relative="1" as="geometry">
            <mxPoint x="1454.5" y="3940" as="sourcePoint" />
            <mxPoint x="1126.5" y="4125" as="targetPoint" />
          </mxGeometry>
        </mxCell>
        <mxCell id="mbtWYfYxGWzuB-wMxGtt-81" value="Якимось чином змінити наповнення" style="shape=note;whiteSpace=wrap;html=1;backgroundOutline=1;darkOpacity=0.05;fillColor=#b0e3e6;strokeColor=#0e8088;" parent="1" vertex="1">
          <mxGeometry x="1569" y="3360" width="90" height="110" as="geometry" />
        </mxCell>
        <mxCell id="mbtWYfYxGWzuB-wMxGtt-82" value="" style="endArrow=none;html=1;rounded=0;entryX=0;entryY=0;entryDx=0;entryDy=0;exitX=1;exitY=1;exitDx=0;exitDy=0;exitPerimeter=0;" parent="1" source="mbtWYfYxGWzuB-wMxGtt-81" target="mbtWYfYxGWzuB-wMxGtt-65" edge="1">
          <mxGeometry width="50" height="50" relative="1" as="geometry">
            <mxPoint x="1934.5" y="3230" as="sourcePoint" />
            <mxPoint x="1858.5" y="3120" as="targetPoint" />
          </mxGeometry>
        </mxCell>
        <mxCell id="mbtWYfYxGWzuB-wMxGtt-83" value="Доадавати / видаляти акційні пропозиції" style="shape=note;whiteSpace=wrap;html=1;backgroundOutline=1;darkOpacity=0.05;fillColor=#b0e3e6;strokeColor=#0e8088;" parent="1" vertex="1">
          <mxGeometry x="924.5" y="4085" width="90" height="110" as="geometry" />
        </mxCell>
        <mxCell id="mbtWYfYxGWzuB-wMxGtt-84" value="" style="endArrow=none;html=1;rounded=0;exitX=0;exitY=0;exitDx=0;exitDy=0;exitPerimeter=0;entryX=1;entryY=0.5;entryDx=0;entryDy=0;" parent="1" source="mbtWYfYxGWzuB-wMxGtt-83" target="mbtWYfYxGWzuB-wMxGtt-79" edge="1">
          <mxGeometry width="50" height="50" relative="1" as="geometry">
            <mxPoint x="1136.25" y="4190" as="sourcePoint" />
            <mxPoint x="986.5" y="4260" as="targetPoint" />
          </mxGeometry>
        </mxCell>
        <mxCell id="BC8G3lLpbWC5Ay5VA8g_-2" value="user" style="shape=umlActor;verticalLabelPosition=bottom;verticalAlign=top;html=1;outlineConnect=0;" vertex="1" parent="1">
          <mxGeometry x="668" y="1350" width="30" height="60" as="geometry" />
        </mxCell>
        <mxCell id="BC8G3lLpbWC5Ay5VA8g_-5" value="" style="endArrow=classic;html=1;rounded=0;" edge="1" parent="1" source="BC8G3lLpbWC5Ay5VA8g_-2" target="BC8G3lLpbWC5Ay5VA8g_-6">
          <mxGeometry width="50" height="50" relative="1" as="geometry">
            <mxPoint x="733" y="1370" as="sourcePoint" />
            <mxPoint x="723" y="1360" as="targetPoint" />
          </mxGeometry>
        </mxCell>
        <mxCell id="BC8G3lLpbWC5Ay5VA8g_-6" value="ВИБРАТИ КАТЕГОРІЮ" style="ellipse;whiteSpace=wrap;html=1;fillColor=#bac8d3;strokeColor=#23445d;" vertex="1" parent="1">
          <mxGeometry x="856" y="1345" width="140" height="70" as="geometry" />
        </mxCell>
        <mxCell id="BC8G3lLpbWC5Ay5VA8g_-7" value="ВІДСОРТУВАТИ" style="ellipse;whiteSpace=wrap;html=1;fillColor=#bac8d3;strokeColor=#23445d;" vertex="1" parent="1">
          <mxGeometry x="1088" y="1500" width="140" height="70" as="geometry" />
        </mxCell>
        <mxCell id="BC8G3lLpbWC5Ay5VA8g_-8" value="ПЕРЕГЛЯНУТИ ТОВАР" style="ellipse;whiteSpace=wrap;html=1;fillColor=#bac8d3;strokeColor=#23445d;" vertex="1" parent="1">
          <mxGeometry x="1160" y="1340" width="140" height="70" as="geometry" />
        </mxCell>
        <mxCell id="BC8G3lLpbWC5Ay5VA8g_-9" value="ДОДАТИ ДО КОШИКУ" style="ellipse;whiteSpace=wrap;html=1;fillColor=#d5e8d4;strokeColor=#82b366;" vertex="1" parent="1">
          <mxGeometry x="1424.5" y="1340" width="140" height="70" as="geometry" />
        </mxCell>
        <mxCell id="BC8G3lLpbWC5Ay5VA8g_-10" value="ЗАПОВНИТИ ЗАПИТ" style="ellipse;whiteSpace=wrap;html=1;fillColor=#dae8fc;strokeColor=#6c8ebf;" vertex="1" parent="1">
          <mxGeometry x="433" y="1345" width="140" height="70" as="geometry" />
        </mxCell>
        <mxCell id="BC8G3lLpbWC5Ay5VA8g_-11" value="НАДІСЛАТИ" style="ellipse;whiteSpace=wrap;html=1;fillColor=#dae8fc;strokeColor=#6c8ebf;" vertex="1" parent="1">
          <mxGeometry x="173" y="1345" width="140" height="70" as="geometry" />
        </mxCell>
        <mxCell id="BC8G3lLpbWC5Ay5VA8g_-13" value="ЗРОБИТИ ЗАМОВЛЕННЯ" style="ellipse;whiteSpace=wrap;html=1;fillColor=#d5e8d4;strokeColor=#82b366;" vertex="1" parent="1">
          <mxGeometry x="817.5" y="1620" width="140" height="70" as="geometry" />
        </mxCell>
        <mxCell id="BC8G3lLpbWC5Ay5VA8g_-14" value="ПЕРЕДИВИТИСЬ КОШИК" style="ellipse;whiteSpace=wrap;html=1;fillColor=#d5e8d4;strokeColor=#82b366;" vertex="1" parent="1">
          <mxGeometry x="613" y="1510" width="140" height="70" as="geometry" />
        </mxCell>
        <mxCell id="BC8G3lLpbWC5Ay5VA8g_-15" value="ВВЕСТИ ІНФОРМАЦІЮ / ПІДТВЕРДИТИ" style="ellipse;whiteSpace=wrap;html=1;fillColor=#d5e8d4;strokeColor=#82b366;" vertex="1" parent="1">
          <mxGeometry x="604" y="1720" width="140" height="70" as="geometry" />
        </mxCell>
        <mxCell id="BC8G3lLpbWC5Ay5VA8g_-17" value="ВИДАЛИТИ ТОВАР" style="ellipse;whiteSpace=wrap;html=1;fillColor=#d5e8d4;strokeColor=#82b366;" vertex="1" parent="1">
          <mxGeometry x="413" y="1630" width="140" height="70" as="geometry" />
        </mxCell>
        <mxCell id="BC8G3lLpbWC5Ay5VA8g_-19" value="ПЕРЕГЛЯНУТИ АКЦІЇ / НОВИНКИ" style="ellipse;whiteSpace=wrap;html=1;fillColor=#ffe6cc;strokeColor=#d79b00;" vertex="1" parent="1">
          <mxGeometry x="613" y="1120" width="140" height="70" as="geometry" />
        </mxCell>
        <mxCell id="BC8G3lLpbWC5Ay5VA8g_-20" value="ПЕРЕГЛЯНУТИ ІНФОРМАЦІЮ ПРО МАГАЗИН" style="ellipse;whiteSpace=wrap;html=1;fillColor=#f5f5f5;fontColor=#333333;strokeColor=#666666;" vertex="1" parent="1">
          <mxGeometry x="411" y="1170" width="140" height="70" as="geometry" />
        </mxCell>
        <mxCell id="BC8G3lLpbWC5Ay5VA8g_-21" value="" style="endArrow=classic;html=1;rounded=0;" edge="1" parent="1" source="BC8G3lLpbWC5Ay5VA8g_-2" target="BC8G3lLpbWC5Ay5VA8g_-10">
          <mxGeometry width="50" height="50" relative="1" as="geometry">
            <mxPoint x="567" y="1440" as="sourcePoint" />
            <mxPoint x="647" y="1440" as="targetPoint" />
          </mxGeometry>
        </mxCell>
        <mxCell id="BC8G3lLpbWC5Ay5VA8g_-22" value="" style="endArrow=classic;html=1;rounded=0;" edge="1" parent="1" source="BC8G3lLpbWC5Ay5VA8g_-2" target="BC8G3lLpbWC5Ay5VA8g_-20">
          <mxGeometry width="50" height="50" relative="1" as="geometry">
            <mxPoint x="577" y="1450" as="sourcePoint" />
            <mxPoint x="657" y="1450" as="targetPoint" />
          </mxGeometry>
        </mxCell>
        <mxCell id="BC8G3lLpbWC5Ay5VA8g_-23" value="" style="endArrow=classic;html=1;rounded=0;" edge="1" parent="1" source="BC8G3lLpbWC5Ay5VA8g_-2" target="BC8G3lLpbWC5Ay5VA8g_-19">
          <mxGeometry width="50" height="50" relative="1" as="geometry">
            <mxPoint x="587" y="1460" as="sourcePoint" />
            <mxPoint x="667" y="1460" as="targetPoint" />
          </mxGeometry>
        </mxCell>
        <mxCell id="BC8G3lLpbWC5Ay5VA8g_-24" value="" style="endArrow=classic;html=1;rounded=0;" edge="1" parent="1" source="BC8G3lLpbWC5Ay5VA8g_-2" target="BC8G3lLpbWC5Ay5VA8g_-14">
          <mxGeometry width="50" height="50" relative="1" as="geometry">
            <mxPoint x="597" y="1470" as="sourcePoint" />
            <mxPoint x="843" y="1410" as="targetPoint" />
          </mxGeometry>
        </mxCell>
        <mxCell id="BC8G3lLpbWC5Ay5VA8g_-25" value="" style="endArrow=classic;html=1;rounded=0;" edge="1" parent="1">
          <mxGeometry width="50" height="50" relative="1" as="geometry">
            <mxPoint x="1920" y="1850" as="sourcePoint" />
            <mxPoint x="2000" y="1850" as="targetPoint" />
          </mxGeometry>
        </mxCell>
        <mxCell id="BC8G3lLpbWC5Ay5VA8g_-26" value="" style="endArrow=classic;html=1;rounded=0;" edge="1" parent="1">
          <mxGeometry width="50" height="50" relative="1" as="geometry">
            <mxPoint x="1930" y="1860" as="sourcePoint" />
            <mxPoint x="2010" y="1860" as="targetPoint" />
          </mxGeometry>
        </mxCell>
        <mxCell id="BC8G3lLpbWC5Ay5VA8g_-27" value="" style="endArrow=classic;html=1;rounded=0;" edge="1" parent="1">
          <mxGeometry width="50" height="50" relative="1" as="geometry">
            <mxPoint x="1940" y="1870" as="sourcePoint" />
            <mxPoint x="2020" y="1870" as="targetPoint" />
          </mxGeometry>
        </mxCell>
        <mxCell id="BC8G3lLpbWC5Ay5VA8g_-28" value="" style="endArrow=classic;html=1;rounded=0;" edge="1" parent="1">
          <mxGeometry width="50" height="50" relative="1" as="geometry">
            <mxPoint x="1950" y="1880" as="sourcePoint" />
            <mxPoint x="2030" y="1880" as="targetPoint" />
          </mxGeometry>
        </mxCell>
        <mxCell id="BC8G3lLpbWC5Ay5VA8g_-29" value="&amp;lt;&amp;lt;extend&amp;gt;&amp;gt;" style="endArrow=open;endSize=12;dashed=1;html=1;rounded=0;" edge="1" parent="1" source="BC8G3lLpbWC5Ay5VA8g_-15" target="BC8G3lLpbWC5Ay5VA8g_-13">
          <mxGeometry width="160" relative="1" as="geometry">
            <mxPoint x="593" y="1670" as="sourcePoint" />
            <mxPoint x="703" y="1670" as="targetPoint" />
          </mxGeometry>
        </mxCell>
        <mxCell id="BC8G3lLpbWC5Ay5VA8g_-30" value="&amp;lt;&amp;lt;include&amp;gt;&amp;gt;" style="endArrow=open;endSize=12;dashed=1;html=1;rounded=0;exitX=1;exitY=0.5;exitDx=0;exitDy=0;" edge="1" parent="1">
          <mxGeometry x="-0.0035" width="160" relative="1" as="geometry">
            <mxPoint x="1935" y="1910" as="sourcePoint" />
            <mxPoint x="2045" y="1910" as="targetPoint" />
            <mxPoint as="offset" />
          </mxGeometry>
        </mxCell>
        <mxCell id="BC8G3lLpbWC5Ay5VA8g_-31" value="&amp;lt;&amp;lt;extend&amp;gt;&amp;gt;" style="endArrow=open;endSize=12;dashed=1;html=1;rounded=0;" edge="1" parent="1" source="BC8G3lLpbWC5Ay5VA8g_-7" target="BC8G3lLpbWC5Ay5VA8g_-6">
          <mxGeometry x="-0.0025" width="160" relative="1" as="geometry">
            <mxPoint x="973" y="1350" as="sourcePoint" />
            <mxPoint x="1083" y="1350" as="targetPoint" />
            <mxPoint as="offset" />
          </mxGeometry>
        </mxCell>
        <mxCell id="BC8G3lLpbWC5Ay5VA8g_-33" value="&amp;lt;&amp;lt;extend&amp;gt;&amp;gt;" style="endArrow=open;endSize=12;dashed=1;html=1;rounded=0;" edge="1" parent="1" source="BC8G3lLpbWC5Ay5VA8g_-8" target="BC8G3lLpbWC5Ay5VA8g_-6">
          <mxGeometry x="-0.0115" width="160" relative="1" as="geometry">
            <mxPoint x="1203" y="1320" as="sourcePoint" />
            <mxPoint x="1108" y="1323" as="targetPoint" />
            <mxPoint as="offset" />
          </mxGeometry>
        </mxCell>
        <mxCell id="BC8G3lLpbWC5Ay5VA8g_-34" value="&amp;lt;&amp;lt;extend&amp;gt;&amp;gt;" style="endArrow=open;endSize=12;dashed=1;html=1;rounded=0;" edge="1" parent="1" source="BC8G3lLpbWC5Ay5VA8g_-13" target="BC8G3lLpbWC5Ay5VA8g_-14">
          <mxGeometry x="0.0036" width="160" relative="1" as="geometry">
            <mxPoint x="703" y="1510" as="sourcePoint" />
            <mxPoint x="813" y="1510" as="targetPoint" />
            <mxPoint as="offset" />
          </mxGeometry>
        </mxCell>
        <mxCell id="BC8G3lLpbWC5Ay5VA8g_-36" value="ЗНАЙТИ ТОВАР" style="ellipse;whiteSpace=wrap;html=1;fillColor=#bac8d3;strokeColor=#23445d;" vertex="1" parent="1">
          <mxGeometry x="852.5" y="1150" width="140" height="70" as="geometry" />
        </mxCell>
        <mxCell id="BC8G3lLpbWC5Ay5VA8g_-38" value="" style="endArrow=classic;html=1;rounded=0;" edge="1" parent="1" source="BC8G3lLpbWC5Ay5VA8g_-2" target="BC8G3lLpbWC5Ay5VA8g_-36">
          <mxGeometry width="50" height="50" relative="1" as="geometry">
            <mxPoint x="713" y="1460" as="sourcePoint" />
            <mxPoint x="793" y="1460" as="targetPoint" />
          </mxGeometry>
        </mxCell>
        <mxCell id="BC8G3lLpbWC5Ay5VA8g_-39" value="&amp;lt;&amp;lt;include&amp;gt;&amp;gt;" style="endArrow=open;endSize=12;dashed=1;html=1;rounded=0;" edge="1" parent="1" source="BC8G3lLpbWC5Ay5VA8g_-36" target="BC8G3lLpbWC5Ay5VA8g_-8">
          <mxGeometry x="-0.0035" width="160" relative="1" as="geometry">
            <mxPoint x="953" y="1580" as="sourcePoint" />
            <mxPoint x="1013" y="1640" as="targetPoint" />
            <mxPoint as="offset" />
          </mxGeometry>
        </mxCell>
        <mxCell id="BC8G3lLpbWC5Ay5VA8g_-40" value="&amp;lt;&amp;lt;extend&amp;gt;&amp;gt;" style="endArrow=open;endSize=12;dashed=1;html=1;rounded=0;" edge="1" parent="1" source="BC8G3lLpbWC5Ay5VA8g_-9" target="BC8G3lLpbWC5Ay5VA8g_-8">
          <mxGeometry x="-0.0115" width="160" relative="1" as="geometry">
            <mxPoint x="1383" y="1410" as="sourcePoint" />
            <mxPoint x="1156" y="1413" as="targetPoint" />
            <mxPoint as="offset" />
          </mxGeometry>
        </mxCell>
        <mxCell id="BC8G3lLpbWC5Ay5VA8g_-41" value="&amp;lt;&amp;lt;extend&amp;gt;&amp;gt;" style="endArrow=open;endSize=12;dashed=1;html=1;rounded=0;" edge="1" parent="1" source="BC8G3lLpbWC5Ay5VA8g_-11" target="BC8G3lLpbWC5Ay5VA8g_-10">
          <mxGeometry x="0.0036" width="160" relative="1" as="geometry">
            <mxPoint x="393" y="1460" as="sourcePoint" />
            <mxPoint x="238" y="1450" as="targetPoint" />
            <mxPoint as="offset" />
          </mxGeometry>
        </mxCell>
        <mxCell id="BC8G3lLpbWC5Ay5VA8g_-42" value="&amp;lt;&amp;lt;extend&amp;gt;&amp;gt;" style="endArrow=open;endSize=12;dashed=1;html=1;rounded=0;" edge="1" parent="1" source="BC8G3lLpbWC5Ay5VA8g_-17" target="BC8G3lLpbWC5Ay5VA8g_-14">
          <mxGeometry x="0.0036" width="160" relative="1" as="geometry">
            <mxPoint x="1243" y="1760" as="sourcePoint" />
            <mxPoint x="1059" y="1748" as="targetPoint" />
            <mxPoint as="offset" />
          </mxGeometry>
        </mxCell>
        <mxCell id="BC8G3lLpbWC5Ay5VA8g_-44" value="НОВИЗНА" style="ellipse;whiteSpace=wrap;html=1;fillColor=#f5f5f5;fontColor=#333333;strokeColor=#666666;" vertex="1" parent="1">
          <mxGeometry x="1088" y="1620" width="140" height="70" as="geometry" />
        </mxCell>
        <mxCell id="BC8G3lLpbWC5Ay5VA8g_-45" value="ПОПУЛЯРНІСТЬ" style="ellipse;whiteSpace=wrap;html=1;fillColor=#f5f5f5;fontColor=#333333;strokeColor=#666666;" vertex="1" parent="1">
          <mxGeometry x="1261.5" y="1600" width="140" height="70" as="geometry" />
        </mxCell>
        <mxCell id="BC8G3lLpbWC5Ay5VA8g_-46" value="ЦІНА" style="ellipse;whiteSpace=wrap;html=1;fillColor=#f5f5f5;fontColor=#333333;strokeColor=#666666;" vertex="1" parent="1">
          <mxGeometry x="1321.5" y="1500" width="140" height="70" as="geometry" />
        </mxCell>
        <mxCell id="BC8G3lLpbWC5Ay5VA8g_-47" value="" style="endArrow=block;endSize=16;endFill=0;html=1;rounded=0;" edge="1" parent="1" source="BC8G3lLpbWC5Ay5VA8g_-45" target="BC8G3lLpbWC5Ay5VA8g_-7">
          <mxGeometry width="160" relative="1" as="geometry">
            <mxPoint x="1493" y="1285" as="sourcePoint" />
            <mxPoint x="1793.000000000006" y="1385" as="targetPoint" />
          </mxGeometry>
        </mxCell>
        <mxCell id="BC8G3lLpbWC5Ay5VA8g_-48" value="" style="endArrow=block;endSize=16;endFill=0;html=1;rounded=0;" edge="1" parent="1" source="BC8G3lLpbWC5Ay5VA8g_-44" target="BC8G3lLpbWC5Ay5VA8g_-7">
          <mxGeometry width="160" relative="1" as="geometry">
            <mxPoint x="1543" y="1225" as="sourcePoint" />
            <mxPoint x="1772.918706740932" y="1409.5363134828312" as="targetPoint" />
          </mxGeometry>
        </mxCell>
        <mxCell id="BC8G3lLpbWC5Ay5VA8g_-49" value="" style="endArrow=block;endSize=16;endFill=0;html=1;rounded=0;" edge="1" parent="1" source="BC8G3lLpbWC5Ay5VA8g_-46" target="BC8G3lLpbWC5Ay5VA8g_-7">
          <mxGeometry width="160" relative="1" as="geometry">
            <mxPoint x="1543" y="1345" as="sourcePoint" />
            <mxPoint x="1772.918706740932" y="1360.4636865171688" as="targetPoint" />
            <mxPoint as="offset" />
          </mxGeometry>
        </mxCell>
        <mxCell id="BC8G3lLpbWC5Ay5VA8g_-50" value="&amp;lt;&amp;lt;extend&amp;gt;&amp;gt;" style="endArrow=open;endSize=12;dashed=1;html=1;rounded=0;" edge="1" parent="1" source="BC8G3lLpbWC5Ay5VA8g_-6" target="BC8G3lLpbWC5Ay5VA8g_-19">
          <mxGeometry x="-0.0025" width="160" relative="1" as="geometry">
            <mxPoint x="1243" y="1050" as="sourcePoint" />
            <mxPoint x="1095" y="951" as="targetPoint" />
            <mxPoint as="offset" />
          </mxGeometry>
        </mxCell>
        <mxCell id="BC8G3lLpbWC5Ay5VA8g_-51" value="admin" style="shape=umlActor;verticalLabelPosition=bottom;verticalAlign=top;html=1;outlineConnect=0;" vertex="1" parent="1">
          <mxGeometry x="735" y="2190" width="30" height="60" as="geometry" />
        </mxCell>
        <mxCell id="BC8G3lLpbWC5Ay5VA8g_-52" value="" style="endArrow=classic;html=1;rounded=0;" edge="1" parent="1" source="BC8G3lLpbWC5Ay5VA8g_-51" target="BC8G3lLpbWC5Ay5VA8g_-53">
          <mxGeometry width="50" height="50" relative="1" as="geometry">
            <mxPoint x="800" y="2210" as="sourcePoint" />
            <mxPoint x="790" y="2200" as="targetPoint" />
          </mxGeometry>
        </mxCell>
        <mxCell id="BC8G3lLpbWC5Ay5VA8g_-53" value="ВИБРАТИ КАТЕГОРІЮ" style="ellipse;whiteSpace=wrap;html=1;fillColor=#bac8d3;strokeColor=#23445d;" vertex="1" parent="1">
          <mxGeometry x="923" y="2185" width="140" height="70" as="geometry" />
        </mxCell>
        <mxCell id="BC8G3lLpbWC5Ay5VA8g_-54" value="ВІДСОРТУВАТИ" style="ellipse;whiteSpace=wrap;html=1;fillColor=#bac8d3;strokeColor=#23445d;" vertex="1" parent="1">
          <mxGeometry x="1155" y="2340" width="140" height="70" as="geometry" />
        </mxCell>
        <mxCell id="BC8G3lLpbWC5Ay5VA8g_-55" value="ПЕРЕГЛЯНУТИ ТОВАР" style="ellipse;whiteSpace=wrap;html=1;fillColor=#bac8d3;strokeColor=#23445d;" vertex="1" parent="1">
          <mxGeometry x="1227" y="2180" width="140" height="70" as="geometry" />
        </mxCell>
        <mxCell id="BC8G3lLpbWC5Ay5VA8g_-56" value="ДОДАТИ ДО КОШИКУ" style="ellipse;whiteSpace=wrap;html=1;fillColor=#d5e8d4;strokeColor=#82b366;" vertex="1" parent="1">
          <mxGeometry x="1491.5" y="2180" width="140" height="70" as="geometry" />
        </mxCell>
        <mxCell id="BC8G3lLpbWC5Ay5VA8g_-57" value="ПЕРЕДИВИТИСЬ ФОРМИ" style="ellipse;whiteSpace=wrap;html=1;fillColor=#dae8fc;strokeColor=#6c8ebf;" vertex="1" parent="1">
          <mxGeometry x="478" y="2185" width="140" height="70" as="geometry" />
        </mxCell>
        <mxCell id="BC8G3lLpbWC5Ay5VA8g_-58" value="ЗМИНИТИ СТАТУС ФОРМИ" style="ellipse;whiteSpace=wrap;html=1;fillColor=#dae8fc;strokeColor=#6c8ebf;" vertex="1" parent="1">
          <mxGeometry x="240" y="2185" width="140" height="70" as="geometry" />
        </mxCell>
        <mxCell id="BC8G3lLpbWC5Ay5VA8g_-59" value="ЗРОБИТИ ЗАМОВЛЕННЯ" style="ellipse;whiteSpace=wrap;html=1;fillColor=#d5e8d4;strokeColor=#82b366;" vertex="1" parent="1">
          <mxGeometry x="352" y="2490" width="140" height="70" as="geometry" />
        </mxCell>
        <mxCell id="BC8G3lLpbWC5Ay5VA8g_-60" value="ПЕРЕДИВИТИСЬ КОШИК" style="ellipse;whiteSpace=wrap;html=1;fillColor=#d5e8d4;strokeColor=#82b366;" vertex="1" parent="1">
          <mxGeometry x="478" y="2310" width="140" height="70" as="geometry" />
        </mxCell>
        <mxCell id="BC8G3lLpbWC5Ay5VA8g_-62" value="ВИДАЛИТИ ТОВАР" style="ellipse;whiteSpace=wrap;html=1;fillColor=#d5e8d4;strokeColor=#82b366;" vertex="1" parent="1">
          <mxGeometry x="220" y="2350" width="140" height="70" as="geometry" />
        </mxCell>
        <mxCell id="BC8G3lLpbWC5Ay5VA8g_-63" value="ПЕРЕГЛЯНУТИ АКЦІЇ / НОВИНКИ" style="ellipse;whiteSpace=wrap;html=1;fillColor=#ffe6cc;strokeColor=#d79b00;" vertex="1" parent="1">
          <mxGeometry x="597.5" y="1950" width="140" height="70" as="geometry" />
        </mxCell>
        <mxCell id="BC8G3lLpbWC5Ay5VA8g_-64" value="ПЕРЕГЛЯНУТИ ІНФОРМАЦІЮ ПРО МАГАЗИН" style="ellipse;whiteSpace=wrap;html=1;fillColor=#f5f5f5;fontColor=#333333;strokeColor=#666666;" vertex="1" parent="1">
          <mxGeometry x="395" y="2010" width="140" height="70" as="geometry" />
        </mxCell>
        <mxCell id="BC8G3lLpbWC5Ay5VA8g_-65" value="" style="endArrow=classic;html=1;rounded=0;" edge="1" parent="1" source="BC8G3lLpbWC5Ay5VA8g_-51" target="BC8G3lLpbWC5Ay5VA8g_-57">
          <mxGeometry width="50" height="50" relative="1" as="geometry">
            <mxPoint x="634" y="2280" as="sourcePoint" />
            <mxPoint x="714" y="2280" as="targetPoint" />
          </mxGeometry>
        </mxCell>
        <mxCell id="BC8G3lLpbWC5Ay5VA8g_-66" value="" style="endArrow=classic;html=1;rounded=0;" edge="1" parent="1" source="BC8G3lLpbWC5Ay5VA8g_-51" target="BC8G3lLpbWC5Ay5VA8g_-64">
          <mxGeometry width="50" height="50" relative="1" as="geometry">
            <mxPoint x="644" y="2290" as="sourcePoint" />
            <mxPoint x="724" y="2290" as="targetPoint" />
          </mxGeometry>
        </mxCell>
        <mxCell id="BC8G3lLpbWC5Ay5VA8g_-67" value="" style="endArrow=classic;html=1;rounded=0;" edge="1" parent="1" source="BC8G3lLpbWC5Ay5VA8g_-51" target="BC8G3lLpbWC5Ay5VA8g_-63">
          <mxGeometry width="50" height="50" relative="1" as="geometry">
            <mxPoint x="654" y="2300" as="sourcePoint" />
            <mxPoint x="734" y="2300" as="targetPoint" />
          </mxGeometry>
        </mxCell>
        <mxCell id="BC8G3lLpbWC5Ay5VA8g_-68" value="" style="endArrow=classic;html=1;rounded=0;" edge="1" parent="1" source="BC8G3lLpbWC5Ay5VA8g_-51" target="BC8G3lLpbWC5Ay5VA8g_-60">
          <mxGeometry width="50" height="50" relative="1" as="geometry">
            <mxPoint x="664" y="2310" as="sourcePoint" />
            <mxPoint x="910" y="2250" as="targetPoint" />
          </mxGeometry>
        </mxCell>
        <mxCell id="BC8G3lLpbWC5Ay5VA8g_-70" value="&amp;lt;&amp;lt;extend&amp;gt;&amp;gt;" style="endArrow=open;endSize=12;dashed=1;html=1;rounded=0;" edge="1" parent="1" source="BC8G3lLpbWC5Ay5VA8g_-54" target="BC8G3lLpbWC5Ay5VA8g_-53">
          <mxGeometry x="-0.0025" width="160" relative="1" as="geometry">
            <mxPoint x="1040" y="2190" as="sourcePoint" />
            <mxPoint x="1150" y="2190" as="targetPoint" />
            <mxPoint as="offset" />
          </mxGeometry>
        </mxCell>
        <mxCell id="BC8G3lLpbWC5Ay5VA8g_-71" value="&amp;lt;&amp;lt;extend&amp;gt;&amp;gt;" style="endArrow=open;endSize=12;dashed=1;html=1;rounded=0;" edge="1" parent="1" source="BC8G3lLpbWC5Ay5VA8g_-55" target="BC8G3lLpbWC5Ay5VA8g_-53">
          <mxGeometry x="-0.012" width="160" relative="1" as="geometry">
            <mxPoint x="1270" y="2160" as="sourcePoint" />
            <mxPoint x="1175" y="2163" as="targetPoint" />
            <mxPoint as="offset" />
          </mxGeometry>
        </mxCell>
        <mxCell id="BC8G3lLpbWC5Ay5VA8g_-72" value="&amp;lt;&amp;lt;extend&amp;gt;&amp;gt;" style="endArrow=open;endSize=12;dashed=1;html=1;rounded=0;" edge="1" parent="1" source="BC8G3lLpbWC5Ay5VA8g_-59" target="BC8G3lLpbWC5Ay5VA8g_-60">
          <mxGeometry x="0.0036" width="160" relative="1" as="geometry">
            <mxPoint x="770" y="2350" as="sourcePoint" />
            <mxPoint x="880" y="2350" as="targetPoint" />
            <mxPoint as="offset" />
          </mxGeometry>
        </mxCell>
        <mxCell id="BC8G3lLpbWC5Ay5VA8g_-73" value="ЗНАЙТИ ТОВАР" style="ellipse;whiteSpace=wrap;html=1;fillColor=#bac8d3;strokeColor=#23445d;" vertex="1" parent="1">
          <mxGeometry x="861.5" y="1970" width="140" height="70" as="geometry" />
        </mxCell>
        <mxCell id="BC8G3lLpbWC5Ay5VA8g_-74" value="" style="endArrow=classic;html=1;rounded=0;" edge="1" parent="1" source="BC8G3lLpbWC5Ay5VA8g_-51" target="BC8G3lLpbWC5Ay5VA8g_-73">
          <mxGeometry width="50" height="50" relative="1" as="geometry">
            <mxPoint x="780" y="2300" as="sourcePoint" />
            <mxPoint x="860" y="2300" as="targetPoint" />
          </mxGeometry>
        </mxCell>
        <mxCell id="BC8G3lLpbWC5Ay5VA8g_-75" value="&amp;lt;&amp;lt;include&amp;gt;&amp;gt;" style="endArrow=open;endSize=12;dashed=1;html=1;rounded=0;" edge="1" parent="1" source="BC8G3lLpbWC5Ay5VA8g_-73" target="BC8G3lLpbWC5Ay5VA8g_-55">
          <mxGeometry x="-0.0035" width="160" relative="1" as="geometry">
            <mxPoint x="1020" y="2420" as="sourcePoint" />
            <mxPoint x="1080" y="2480" as="targetPoint" />
            <mxPoint as="offset" />
          </mxGeometry>
        </mxCell>
        <mxCell id="BC8G3lLpbWC5Ay5VA8g_-76" value="&amp;lt;&amp;lt;extend&amp;gt;&amp;gt;" style="endArrow=open;endSize=12;dashed=1;html=1;rounded=0;" edge="1" parent="1" source="BC8G3lLpbWC5Ay5VA8g_-56" target="BC8G3lLpbWC5Ay5VA8g_-55">
          <mxGeometry x="-0.0115" width="160" relative="1" as="geometry">
            <mxPoint x="1450" y="2250" as="sourcePoint" />
            <mxPoint x="1223" y="2253" as="targetPoint" />
            <mxPoint as="offset" />
          </mxGeometry>
        </mxCell>
        <mxCell id="BC8G3lLpbWC5Ay5VA8g_-77" value="&amp;lt;&amp;lt;extend&amp;gt;&amp;gt;" style="endArrow=open;endSize=12;dashed=1;html=1;rounded=0;" edge="1" parent="1" source="BC8G3lLpbWC5Ay5VA8g_-58" target="BC8G3lLpbWC5Ay5VA8g_-57">
          <mxGeometry x="0.0036" width="160" relative="1" as="geometry">
            <mxPoint x="460" y="2300" as="sourcePoint" />
            <mxPoint x="305" y="2290" as="targetPoint" />
            <mxPoint as="offset" />
          </mxGeometry>
        </mxCell>
        <mxCell id="BC8G3lLpbWC5Ay5VA8g_-78" value="&amp;lt;&amp;lt;extend&amp;gt;&amp;gt;" style="endArrow=open;endSize=12;dashed=1;html=1;rounded=0;" edge="1" parent="1" source="BC8G3lLpbWC5Ay5VA8g_-62" target="BC8G3lLpbWC5Ay5VA8g_-60">
          <mxGeometry x="0.0036" width="160" relative="1" as="geometry">
            <mxPoint x="1310" y="2600" as="sourcePoint" />
            <mxPoint x="1126" y="2588" as="targetPoint" />
            <mxPoint as="offset" />
          </mxGeometry>
        </mxCell>
        <mxCell id="BC8G3lLpbWC5Ay5VA8g_-79" value="НОВИЗНА" style="ellipse;whiteSpace=wrap;html=1;fillColor=#f5f5f5;fontColor=#333333;strokeColor=#666666;" vertex="1" parent="1">
          <mxGeometry x="1155" y="2460" width="140" height="70" as="geometry" />
        </mxCell>
        <mxCell id="BC8G3lLpbWC5Ay5VA8g_-80" value="ПОПУЛЯРНІСТЬ" style="ellipse;whiteSpace=wrap;html=1;fillColor=#f5f5f5;fontColor=#333333;strokeColor=#666666;" vertex="1" parent="1">
          <mxGeometry x="1328.5" y="2440" width="140" height="70" as="geometry" />
        </mxCell>
        <mxCell id="BC8G3lLpbWC5Ay5VA8g_-81" value="ЦІНА" style="ellipse;whiteSpace=wrap;html=1;fillColor=#f5f5f5;fontColor=#333333;strokeColor=#666666;" vertex="1" parent="1">
          <mxGeometry x="1388.5" y="2340" width="140" height="70" as="geometry" />
        </mxCell>
        <mxCell id="BC8G3lLpbWC5Ay5VA8g_-82" value="" style="endArrow=block;endSize=16;endFill=0;html=1;rounded=0;" edge="1" parent="1" source="BC8G3lLpbWC5Ay5VA8g_-80" target="BC8G3lLpbWC5Ay5VA8g_-54">
          <mxGeometry width="160" relative="1" as="geometry">
            <mxPoint x="1560" y="2125" as="sourcePoint" />
            <mxPoint x="1860.000000000006" y="2225" as="targetPoint" />
          </mxGeometry>
        </mxCell>
        <mxCell id="BC8G3lLpbWC5Ay5VA8g_-83" value="" style="endArrow=block;endSize=16;endFill=0;html=1;rounded=0;" edge="1" parent="1" source="BC8G3lLpbWC5Ay5VA8g_-79" target="BC8G3lLpbWC5Ay5VA8g_-54">
          <mxGeometry width="160" relative="1" as="geometry">
            <mxPoint x="1610" y="2065" as="sourcePoint" />
            <mxPoint x="1839.918706740932" y="2249.5363134828312" as="targetPoint" />
          </mxGeometry>
        </mxCell>
        <mxCell id="BC8G3lLpbWC5Ay5VA8g_-84" value="" style="endArrow=block;endSize=16;endFill=0;html=1;rounded=0;" edge="1" parent="1" source="BC8G3lLpbWC5Ay5VA8g_-81" target="BC8G3lLpbWC5Ay5VA8g_-54">
          <mxGeometry width="160" relative="1" as="geometry">
            <mxPoint x="1610" y="2185" as="sourcePoint" />
            <mxPoint x="1839.918706740932" y="2200.4636865171688" as="targetPoint" />
            <mxPoint as="offset" />
          </mxGeometry>
        </mxCell>
        <mxCell id="BC8G3lLpbWC5Ay5VA8g_-85" value="&amp;lt;&amp;lt;extend&amp;gt;&amp;gt;" style="endArrow=open;endSize=12;dashed=1;html=1;rounded=0;" edge="1" parent="1" source="BC8G3lLpbWC5Ay5VA8g_-53" target="BC8G3lLpbWC5Ay5VA8g_-63">
          <mxGeometry x="-0.0025" width="160" relative="1" as="geometry">
            <mxPoint x="1310" y="1890" as="sourcePoint" />
            <mxPoint x="1162" y="1791" as="targetPoint" />
            <mxPoint as="offset" />
          </mxGeometry>
        </mxCell>
        <mxCell id="BC8G3lLpbWC5Ay5VA8g_-86" value="ПЕРЕГЛЯНУТИ ЗАМОВЛЕННЯ" style="ellipse;whiteSpace=wrap;html=1;fillColor=#b0e3e6;strokeColor=#0e8088;" vertex="1" parent="1">
          <mxGeometry x="632.5" y="2400" width="140" height="70" as="geometry" />
        </mxCell>
        <mxCell id="BC8G3lLpbWC5Ay5VA8g_-87" value="" style="endArrow=classic;html=1;rounded=0;" edge="1" parent="1" source="BC8G3lLpbWC5Ay5VA8g_-51" target="BC8G3lLpbWC5Ay5VA8g_-86">
          <mxGeometry width="50" height="50" relative="1" as="geometry">
            <mxPoint x="880" y="2320" as="sourcePoint" />
            <mxPoint x="880" y="2420" as="targetPoint" />
          </mxGeometry>
        </mxCell>
        <mxCell id="BC8G3lLpbWC5Ay5VA8g_-88" value="ЗМІНИТИ СТАТУС ЗАМОВЛЕННЯ" style="ellipse;whiteSpace=wrap;html=1;fillColor=#b0e3e6;strokeColor=#0e8088;" vertex="1" parent="1">
          <mxGeometry x="632.5" y="2540" width="140" height="70" as="geometry" />
        </mxCell>
        <mxCell id="BC8G3lLpbWC5Ay5VA8g_-89" value="&amp;lt;&amp;lt;extend&amp;gt;&amp;gt;" style="endArrow=open;endSize=12;dashed=1;html=1;rounded=0;" edge="1" parent="1" source="BC8G3lLpbWC5Ay5VA8g_-88" target="BC8G3lLpbWC5Ay5VA8g_-86">
          <mxGeometry x="-0.012" width="160" relative="1" as="geometry">
            <mxPoint x="870" y="2420" as="sourcePoint" />
            <mxPoint x="706" y="2423" as="targetPoint" />
            <mxPoint as="offset" />
          </mxGeometry>
        </mxCell>
        <mxCell id="BC8G3lLpbWC5Ay5VA8g_-90" value="ДОДАТИ ТОВАР" style="ellipse;whiteSpace=wrap;html=1;fillColor=#b0e3e6;strokeColor=#0e8088;" vertex="1" parent="1">
          <mxGeometry x="933.5" y="2300" width="140" height="70" as="geometry" />
        </mxCell>
        <mxCell id="BC8G3lLpbWC5Ay5VA8g_-91" value="" style="endArrow=classic;html=1;rounded=0;" edge="1" parent="1" source="BC8G3lLpbWC5Ay5VA8g_-51" target="BC8G3lLpbWC5Ay5VA8g_-90">
          <mxGeometry width="50" height="50" relative="1" as="geometry">
            <mxPoint x="900" y="2310" as="sourcePoint" />
            <mxPoint x="1017" y="2532" as="targetPoint" />
          </mxGeometry>
        </mxCell>
        <mxCell id="BC8G3lLpbWC5Ay5VA8g_-92" value="ДОДАТИ КАТЕГОРІЮ" style="ellipse;whiteSpace=wrap;html=1;fillColor=#b0e3e6;strokeColor=#0e8088;" vertex="1" parent="1">
          <mxGeometry x="829.5" y="2400" width="140" height="70" as="geometry" />
        </mxCell>
        <mxCell id="BC8G3lLpbWC5Ay5VA8g_-93" value="" style="endArrow=classic;html=1;rounded=0;" edge="1" parent="1" target="BC8G3lLpbWC5Ay5VA8g_-92" source="BC8G3lLpbWC5Ay5VA8g_-51">
          <mxGeometry width="50" height="50" relative="1" as="geometry">
            <mxPoint x="753.5" y="2339" as="sourcePoint" />
            <mxPoint x="1005.5" y="2642" as="targetPoint" />
          </mxGeometry>
        </mxCell>
        <mxCell id="BC8G3lLpbWC5Ay5VA8g_-94" value="ЗМІНИТИ ІНФОРМАЦІЮ" style="ellipse;whiteSpace=wrap;html=1;fillColor=#b0e3e6;strokeColor=#0e8088;" vertex="1" parent="1">
          <mxGeometry x="140" y="2010" width="140" height="70" as="geometry" />
        </mxCell>
        <mxCell id="BC8G3lLpbWC5Ay5VA8g_-95" value="&amp;lt;&amp;lt;extend&amp;gt;&amp;gt;" style="endArrow=open;endSize=12;dashed=1;html=1;rounded=0;" edge="1" parent="1" source="BC8G3lLpbWC5Ay5VA8g_-94" target="BC8G3lLpbWC5Ay5VA8g_-64">
          <mxGeometry x="-0.0095" width="160" relative="1" as="geometry">
            <mxPoint x="477.5" y="1850" as="sourcePoint" />
            <mxPoint x="310.5" y="1900" as="targetPoint" />
            <mxPoint as="offset" />
          </mxGeometry>
        </mxCell>
        <mxCell id="BC8G3lLpbWC5Ay5VA8g_-96" value="ЗМІНИТИ ТОВАРИ" style="ellipse;whiteSpace=wrap;html=1;fillColor=#b0e3e6;strokeColor=#0e8088;" vertex="1" parent="1">
          <mxGeometry x="310" y="1860" width="140" height="70" as="geometry" />
        </mxCell>
        <mxCell id="BC8G3lLpbWC5Ay5VA8g_-97" value="&amp;lt;&amp;lt;extend&amp;gt;&amp;gt;" style="endArrow=open;endSize=12;dashed=1;html=1;rounded=0;" edge="1" parent="1" source="BC8G3lLpbWC5Ay5VA8g_-63" target="BC8G3lLpbWC5Ay5VA8g_-96">
          <mxGeometry x="-0.0095" width="160" relative="1" as="geometry">
            <mxPoint x="570" y="1950" as="sourcePoint" />
            <mxPoint x="685" y="1950" as="targetPoint" />
            <mxPoint as="offset" />
          </mxGeometry>
        </mxCell>
      </root>
    </mxGraphModel>
  </diagram>
</mxfile>
